<?xml version="1.0" encoding="utf-8"?>
<!-- Generator: Adobe Illustrator 25.2.1, SVG Export Plug-In . SVG Version: 6.00 Build 0)  -->
<svg version="1.1" id="图层_1" xmlns="http://www.w3.org/2000/svg" xmlns:xlink="http://www.w3.org/1999/xlink" x="0px" y="0px"
	 viewBox="0 0 750 700" style="enable-background:new 0 0 750 700;" xml:space="preserve">
<style type="text/css">
	.st0{clip-path:url(#SVGID_2_);}
	.st1{fill:#6E40AA;}
	.st2{font-family:'ArialMT';}
	.st3{font-size:9.3535px;}
	.st4{fill:#893EB1;}
	.st5{font-size:9.3531px;}
	.st6{fill:#A63CB3;}
	.st7{fill:#C23DAE;}
	.st8{fill:#DB3FA3;}
	.st9{fill:#F14592;}
	.st10{fill:#FF4E7E;}
	.st11{fill:#FF5A69;}
	.st12{font-size:9.3527px;}
	.st13{fill:#FF6A54;}
	.st14{fill:#FF7E42;}
	.st15{fill:#FD9335;}
	.st16{fill:#EDAA2E;}
	.st17{fill:#DAC030;}
	.st18{fill:#C7D53B;}
	.st19{fill:#B6E84E;}
	.st20{fill:#9EF258;}
	.st21{fill:#7DF658;}
	.st22{fill:#5EF661;}
	.st23{fill:#43F471;}
	.st24{fill:#2EED85;}
	.st25{fill:#20E39C;}
	.st26{fill:#1AD4B3;}
	.st27{fill:#1AC3C7;}
	.st28{fill:#21AFD6;}
	.st29{fill:#2D9ADF;}
	.st30{fill:#3B85E1;}
	.st31{font-size:9.3534px;}
	.st32{fill:#4B70DC;}
	.st33{fill:#595ED1;}
	.st34{fill:#654DBF;}
	.st35{fill:#FD9335;fill-opacity:0.75;}
	.st36{fill:#EDAA2E;fill-opacity:0.75;}
	.st37{fill:#20E39C;fill-opacity:0.75;}
	.st38{fill:#C23DAE;fill-opacity:0.75;}
	.st39{fill:#C7D53B;fill-opacity:0.75;}
	.st40{fill:#FF7E42;fill-opacity:0.75;}
	.st41{fill:#DAC030;fill-opacity:0.75;}
	.st42{fill:#F14592;fill-opacity:0.75;}
	.st43{fill:#DB3FA3;fill-opacity:0.75;}
	.st44{fill:#6E40AA;fill-opacity:0.75;}
	.st45{fill:#2EED85;fill-opacity:0.75;}
	.st46{fill:#2D9ADF;fill-opacity:0.75;}
	.st47{fill:#FF4E7E;fill-opacity:0.75;}
	.st48{fill:#43F471;fill-opacity:0.75;}
	.st49{fill:#7DF658;fill-opacity:0.75;}
	.st50{fill:#FF5A69;fill-opacity:0.75;}
	.st51{fill:#1AC3C7;fill-opacity:0.75;}
	.st52{fill:#1AD4B3;fill-opacity:0.75;}
	.st53{fill:#21AFD6;fill-opacity:0.75;}
	.st54{fill:#4B70DC;fill-opacity:0.75;}
	.st55{fill:#5EF661;fill-opacity:0.75;}
	.st56{fill:#9EF258;fill-opacity:0.75;}
	.st57{fill:#B6E84E;fill-opacity:0.75;}
	.st58{fill:#3B85E1;fill-opacity:0.75;}
	.st59{fill:#654DBF;fill-opacity:0.75;}
	.st60{fill:#893EB1;fill-opacity:0.75;}
</style>
<g>
	<defs>
		<polygon id="SVGID_1_" points="750,603.2 254.4,702.2 5.8,702.2 5.8,0 750,0 		"/>
	</defs>
	<clipPath id="SVGID_2_">
		<use xlink:href="#SVGID_1_"  style="overflow:visible;"/>
	</clipPath>
	<g class="st0">
		<g>
			<g>
				<path class="st1" d="M203.5,249.2c6.1-9.9,12.7-19.4,19.7-28.7l7.5,5.6c-6.8,9-13.2,18.4-19.2,28L203.5,249.2z"/>
				<text transform="matrix(-0.825 -0.5652 0.5652 -0.825 210.9466 229.256)" class="st2 st3">analytics.cluster</text>
			</g>
			<g>
				<path class="st4" d="M229,212.9c9.7-12.2,20.2-23.8,31.4-34.7l6.5,6.7c-10.9,10.6-21.2,21.9-30.7,33.8L229,212.9z"/>
				<text transform="matrix(-0.7409 -0.6716 0.6716 -0.7409 242.9173 189.4987)" class="st2 st5">analytics.graph</text>
			</g>
			<g>
				<path class="st6" d="M267.4,171.6c2.6-2.4,5.3-4.8,8-7.1l6.1,7.1c-2.6,2.3-5.2,4.6-7.8,7L267.4,171.6z"/>
				<text transform="matrix(-0.6676 -0.7445 0.7445 -0.6676 270.6934 162.3502)" class="st2 st5">analytics.optimization</text>
			</g>
			<g>
				<path class="st7" d="M282.7,158.3c38.3-31.7,82.6-55.3,130.2-69.6l2.7,9c-46.4,13.9-89.6,36.9-126.9,67.8L282.7,158.3z"/>
				<text transform="matrix(-0.4713 -0.882 0.882 -0.4713 344.9807 111.2903)" class="st2 st5">animate</text>
			</g>
			<g>
				<path class="st8" d="M422.1,86.1c15.1-4.1,30.4-7.2,45.9-9.4l1.3,9.3c-15.1,2.1-30,5.2-44.7,9.1L422.1,86.1z"/>
				<text transform="matrix(-0.2004 -0.9797 0.9797 -0.2004 447.1532 75.4319)" class="st2 st5">animate.interpolate</text>
			</g>
			<g>
				<path class="st9" d="M477.5,75.5c16.9-1.9,33.8-2.7,50.8-2.3l-0.2,9.4c-16.5-0.4-33.1,0.3-49.5,2.2L477.5,75.5z"/>
				<text transform="matrix(-4.431298e-02 -0.999 0.999 -4.431298e-02 505.895 68.6849)" class="st2 st5">data</text>
			</g>
			<g>
				<path class="st10" d="M537.8,73.6C553,74.4,568,76,583,78.7l-1.6,9.2c-14.6-2.5-29.3-4.2-44.1-4.9L537.8,73.6z"/>
				<text transform="matrix(0.1111 -0.9938 0.9938 0.1111 564.2954 71.1506)" class="st2 st5">data.converters</text>
			</g>
			<g>
				<path class="st11" d="M592.5,80.4c10.5,2.1,20.9,4.7,31.2,7.7l-2.6,9c-10-2.9-20.2-5.4-30.4-7.5L592.5,80.4z"/>
				<text transform="matrix(0.2393 -0.9709 0.9709 0.2393 612.4443 80.17)" class="st2 st12">display</text>
			</g>
			<g>
				<path class="st13" d="M632.8,90.9c2.5,0.8,5.1,1.7,7.6,2.5l-3.1,8.8c-2.5-0.9-4.9-1.7-7.4-2.5L632.8,90.9z"/>
				<text transform="matrix(0.3161 -0.9487 0.9487 0.3161 641.226 88.7694)" class="st2 st5">flex</text>
			</g>
			<g>
				<path class="st14" d="M649.5,96.7c19.7,7.4,38.6,16.4,56.8,26.9l-4.7,8.1c-17.7-10.3-36.2-19.1-55.3-26.3L649.5,96.7z"/>
				<text transform="matrix(0.4286 -0.9035 0.9035 0.4286 683.3905 106.1479)" class="st2 st5">physics</text>
			</g>
			<g>
				<path class="st15" d="M714.5,128.6c61.2,37.8,110,92.5,140.7,157.5l-8.5,4c-29.9-63.4-77.5-116.7-137.1-153.6L714.5,128.6z"/>
				<text transform="matrix(0.7459 -0.6661 0.6661 0.7459 801.9128 196.4558)" class="st2 st5">query</text>
			</g>
			<g>
				<path class="st16" d="M859.1,294.8c19.8,45.1,30.5,93.6,31.4,142.9l-9.4,0.2c-0.9-48-11.3-95.3-30.6-139.3L859.1,294.8z"/>
				<text transform="matrix(0.9767 -0.2148 0.2148 0.9767 887.2075 366.8988)" class="st2 st3">query.methods</text>
			</g>
			<g>
				<path class="st17" d="M890.6,447.3c-0.3,35.3-5.6,70.4-15.8,104.2l-9-2.7c9.9-33,15.1-67.2,15.4-101.6L890.6,447.3z"/>
				<text transform="matrix(0.9888 0.1495 -0.1495 0.9888 890.5656 503.8869)" class="st2 st3">scale</text>
			</g>
			<g>
				<path class="st18" d="M872,560.6c-22.4,67.8-63.8,127.8-119.4,172.7l-5.9-7.3c54.2-43.8,94.6-102.2,116.4-168.3L872,560.6z"/>
				<text transform="matrix(-0.8226 -0.5686 0.5686 -0.8226 840.2773 662.3569)" class="st2 st5">util</text>
			</g>
			<g>
				<path class="st19" d="M745.1,739.3c-2.8,2.2-5.7,4.3-8.6,6.4l-5.5-7.6c2.8-2,5.6-4.1,8.4-6.2L745.1,739.3z"/>
				<text transform="matrix(-0.5965 -0.8026 0.8026 -0.5965 767.2894 772.6583)" class="st2 st5">util.heap</text>
			</g>
			<g>
				<path class="st20" d="M728.6,751.2c-2.9,2-5.9,4-8.9,5.9l-5-7.9c2.9-1.9,5.8-3.8,8.7-5.8L728.6,751.2z"/>
				<text transform="matrix(-0.5518 -0.834 0.834 -0.5518 748.9752 785.7119)" class="st2 st5">util.math</text>
			</g>
			<g>
				<path class="st21" d="M711.5,762.1c-7.6,4.6-15.4,9-23.4,13l-4.3-8.3c7.7-4,15.4-8.2,22.8-12.7L711.5,762.1z"/>
				<text transform="matrix(-0.4866 -0.8736 0.8736 -0.4866 725.838 808.5942)" class="st2 st5">util.palette</text>
			</g>
			<g>
				<path class="st22" d="M679.5,779.4c-10.1,4.8-20.3,9.2-30.8,13.1l-3.3-8.8c10.2-3.8,20.2-8,30-12.7L679.5,779.4z"/>
				<text transform="matrix(-0.3905 -0.9206 0.9206 -0.3905 673.6018 799.836)" class="st2 st5">vis</text>
			</g>
			<g>
				<path class="st23" d="M639.7,795.7c-17.7,6.1-35.9,10.8-54.4,14.1l-1.7-9.2c18-3.3,35.7-7.9,53-13.8L639.7,795.7z"/>
				<text transform="matrix(-0.2519 -0.9678 0.9678 -0.2519 624.8792 837.1769)" class="st2 st3">vis.axis</text>
			</g>
			<g>
				<path class="st24" d="M575.9,811.4c-18.1,2.8-36.4,4.2-54.7,4.3v-9.4c17.8-0.1,35.6-1.5,53.3-4.2L575.9,811.4z"/>
				<text transform="matrix(-7.909374e-02 -0.9969 0.9969 -7.909374e-02 555.9873 865.6441)" class="st2 st31">vis.controls</text>
			</g>
			<g>
				<path class="st25" d="M511.7,815.7c-88.8-1.8-174-35.4-240.2-94.7l6.2-7c64.5,57.8,147.6,90.5,234.1,92.3L511.7,815.7z"/>
				<text transform="matrix(0.3669 -0.9303 0.9303 0.3669 372.5744 825.4197)" class="st2 st31">vis.data</text>
			</g>
			<g>
				<path class="st26" d="M264.4,714.5c-6.2-5.8-12.1-11.8-17.9-18.1l6.9-6.3c5.6,6.1,11.4,11.9,17.4,17.6L264.4,714.5z"/>
				<text transform="matrix(0.7109 -0.7033 0.7033 0.7109 210.3144 754.7301)" class="st2 st5">vis.data.render</text>
			</g>
			<g>
				<path class="st27" d="M240.1,689.3c-5.9-6.7-11.5-13.6-16.9-20.7l7.5-5.6c5.2,6.9,10.7,13.7,16.5,20.2L240.1,689.3z"/>
				<text transform="matrix(0.7751 -0.6318 0.6318 0.7751 197.6816 710.8251)" class="st2 st5">vis.events</text>
			</g>
			<g>
				<path class="st28" d="M217.5,660.8c-8.1-11.2-15.5-22.9-22.2-35l8.2-4.6c6.6,11.8,13.8,23.2,21.7,34.1L217.5,660.8z"/>
				<text transform="matrix(0.844 -0.5364 0.5364 0.844 168.1647 671.4814)" class="st2 st5">vis.legend</text>
			</g>
			<g>
				<path class="st29" d="M190.7,617.4c-11.6-22.1-21-45.4-28-69.4l9-2.6c6.8,23.4,15.9,46.1,27.3,67.6L190.7,617.4z"/>
				<text transform="matrix(0.9274 -0.3742 0.3742 0.9274 126.5129 606.4573)" class="st2 st3">vis.operator</text>
			</g>
			<g>
				<path class="st30" d="M160.1,538.7c-1.2-4.7-2.4-9.5-3.5-14.3l9.1-2c1,4.7,2.2,9.3,3.4,14L160.1,538.7z"/>
				<text transform="matrix(0.9721 -0.2347 0.2347 0.9721 68.1431 556.7401)" class="st2 st31">vis.operator.distortion</text>
			</g>
			<g>
				<path class="st32" d="M154.7,515c-2.9-14.9-4.9-30-5.9-45.1l9.3-0.6c1,14.8,2.9,29.4,5.7,44L154.7,515z"/>
				<text transform="matrix(0.9916 -0.1296 0.1296 0.9916 62.8528 507.4047)" class="st2 st31">vis.operator.encoder</text>
			</g>
			<g>
				<path class="st33" d="M148.3,460.4c-0.3-7.6-0.4-15.2-0.3-22.7l9.4,0.2c-0.1,7.4,0,14.8,0.3,22.2L148.3,460.4z"/>
				<text transform="matrix(0.9999 -1.218827e-02 1.218827e-02 0.9999 74.7459 453.1476)" class="st2 st5">vis.operator.filter</text>
			</g>
			<g>
				<path class="st34" d="M148.3,428c0.4-8.9,1.1-17.8,2.1-26.7l9.3,1.1c-1,8.6-1.7,17.3-2.1,26L148.3,428z"/>
				<text transform="matrix(0.9968 8.025202e-02 -8.025202e-02 0.9968 73.7612 411.8688)" class="st2 st5">vis.operator.label</text>
			</g>
			<g>
				<path class="st1" d="M151.7,391.8c6.8-47.4,22.7-93,46.8-134.4l8.1,4.7c-23.5,40.3-39,84.8-45.6,131L151.7,391.8z"/>
				<text transform="matrix(0.9444 0.3288 -0.3288 0.9444 91.4416 298.9435)" class="st2 st5">vis.operator.layout</text>
			</g>
		</g>
		<g>
			<path class="st35" d="M709.5,137.6c22.3,13.8,42.9,30,61.7,48.2c-168,172.4-159.2,186.9,26.1,43.3l29.7,26.5l10.2,38.5
				C625.3,394.3,582.7,342.2,709.5,137.6z"/>
			<path class="st36" d="M849.9,299.4c6.7,15.2,12.3,30.9,16.8,46.9c-231.6,65.5-231.6,79.8-0.1,43l12.3,23.3l-8,25.1
				C636.5,442.2,629.5,396.1,849.9,299.4z"/>
			<path class="st37" d="M162,392.8c2.1-14.3,5-28.5,8.7-42.4C403.1,413.1,452.2,540.6,318,732.8l-22.7-5.3L285,706.6
				C441.2,531.9,400.2,427.2,162,392.8z"/>
			<path class="st35" d="M867,347.2c3.7,13.1,6.6,26.3,8.7,39.7c-237.6,38.4-272.6-24.4-105-188.4l20.5,8.4l5.6,21.4
				C611.8,372.4,635.2,412,867,347.2z"/>
			<path class="st38" d="M289.6,165.9c9.8-8.1,20-15.6,30.6-22.6c132.7,200.8,153.7,193.1,62.9-23l14.1-15.5l20.8,3
				C485.5,332.2,442.7,351.6,289.6,165.9z"/>
			<path class="st37" d="M511.4,805.4c-11-0.2-21.9-1-32.8-2.2c27.1-239.2-17.1-256.7-132.7-52.8l-18.7-0.3l-8.4-16.8
				C452.4,540.8,516.7,564.8,511.4,805.4z"/>
			<path class="st39" d="M862,557.9c-3,9.2-6.4,18.2-10.2,27.1c-221.7-93.7-251.7-55.7-90,114.1l-4.2,16.6l-17,2.1
				C593.1,535.6,633.5,482.3,862,557.9z"/>
			<path class="st40" d="M646.3,106.5c8.6,3.2,17.2,6.8,25.5,10.7c-101.7,218.1-101.6,221.6,0.3,10.5l16.4-2.2l7.4,14.8
				C578.2,343.1,561.6,331.8,646.3,106.5z"/>
			<path class="st39" d="M171,349.5c2.2-8.1,4.7-16.1,7.4-24C405.7,404.8,606,523.3,779.5,681l-1.7,15.4l-15.4,2.1
				C600.3,529.1,403.2,412.8,171,349.5z"/>
			<path class="st41" d="M880.3,447.7c-0.1,7.9-0.4,15.9-1,23.8c-240-18-245.8-0.8-17.2,51.5l6.3,13.6l-12.2,8.8
				C631.6,478.1,639.6,445.5,880.3,447.7z"/>
			<path class="st42" d="M537.8,83.9c7.1,0.4,14.1,0.9,21.1,1.7c-26.4,239.2-43.8,241.7-52.2,7.4l10.3-9.6l10.4,9.4
				C522,327.3,525.5,324.3,537.8,83.9z"/>
			<path class="st39" d="M477.7,803.1c-7-0.8-14-1.8-21-3.1c41.7-237,154-282.2,336.8-135.4l0.5,14l-13.9,1.7
				C606.2,523.1,505.4,564,477.7,803.1z"/>
			<path class="st43" d="M425.2,95.9c6.4-1.7,12.8-3.3,19.3-4.6c49.8,235.5,52,238.2,6.6,8.2l8-11l11.1,7.7
				C502.9,328.4,487.9,328.3,425.2,95.9z"/>
			<path class="st37" d="M237.3,219c3.6-4.5,7.3-8.9,11.1-13.2C429,365,466.6,549.3,361.5,758.8l-11.9,4.4l-3-12.3
				C461.7,546.6,425.3,369.3,237.3,219z"/>
			<path class="st39" d="M879.2,472.4c-0.4,5.7-1,11.5-1.7,17.2c-238.8-30.1-263.2,23.6-73.2,160.9l2.4,12.4l-12.6,1
				C610.9,517.6,639.3,453.8,879.2,472.4z"/>
			<path class="st44" d="M178.7,324.7c1.9-5.4,4-10.8,6.1-16.2c223,90.6,230.4,81.9,22.3-26.1l-4.2-11.9l12.3-2.8
				C417.9,385.5,405.8,404.5,178.7,324.7z"/>
			<path class="st45" d="M573.9,801.3c-4.8,0.7-9.7,1.4-14.6,1.9c-26.7-239.2-34.5-241.7-23.4-7.5l-6.9,9.6l-7.4-9.2
				C520.1,561.7,537.5,563.4,573.9,801.3z"/>
			<path class="st46" d="M199.6,612.2c-2.1-4-4.1-7.9-6-12c217.1-103.8,214.5-118.8-8-44.8l-10.9-3.4l7-9
				C406.7,477.3,412.7,500.4,199.6,612.2z"/>
			<path class="st37" d="M158.6,459.4c-0.2-4-0.3-8-0.3-12.1C399,445.4,470.5,551,373,764.2l-9.4,5.9l-1.3-11
				C467,549.4,399,449.5,158.6,459.4z"/>
			<path class="st39" d="M321,142.7c3-2,6-3.9,9.1-5.8C456.2,342,616.5,510,810.8,641.1l4.7,9.7l-10.7-1.1
				C614.5,512.9,453.2,343.9,321,142.7z"/>
			<path class="st41" d="M455.8,799.9c-3.5-0.6-7.1-1.3-10.6-2.1c49.4-235.6,189.2-330.9,419.3-286l8.1,7.1l-10.3,3.2
				C633.6,470.3,498.1,562.9,455.8,799.9z"/>
			<path class="st37" d="M212.5,254.2c1.7-2.7,3.4-5.3,5.1-8c201.2,132.2,256,306.2,164.7,522.1l-8,6.7l-0.5-10.4
				C470.8,551.2,417,381,212.5,254.2z"/>
			<path class="st37" d="M164.7,512.6c-0.6-3.1-1.2-6.2-1.7-9.3c237.5-39.2,313.6,50.4,228.5,268.9l-7.8,7l-0.8-10.4
				C473.9,552.5,401.1,467.2,164.7,512.6z"/>
			<path class="st42" d="M479.1,85.7c2.7-0.3,5.4-0.6,8.1-0.8c21.4,239.7,24.9,242.6,10.6,8.6l3.5-9.6l4.4,9.2
				C514.8,327.3,505.9,324.9,479.1,85.7z"/>
			<path class="st47" d="M559.8,85.7c2.7,0.3,5.4,0.6,8.1,1c-32.4,238.5-31.3,241.8,3.4,9.9l5.4-8.6l2.4,9.9
				C539.3,328.9,532.8,324.9,559.8,85.7z"/>
			<path class="st48" d="M635.9,786.1c-2.6,0.9-5.2,1.7-7.8,2.6c-72.6-229.5-85.3-229.4-38,0.2l-2.1,10l-5.7-8.4
				C540.3,559.8,558.2,558.3,635.9,786.1z"/>
			<path class="st38" d="M193.2,599.4c-1.2-2.5-2.3-4.9-3.4-7.4C409.4,493.6,471.2,337.5,375,123.7l-0.1-10.2l7.4,7
				C473.6,336.5,410.6,496.1,193.2,599.4z"/>
			<path class="st49" d="M162.9,502.4c-0.4-2.7-0.8-5.4-1.2-8.1c238.4-33.2,413.4,53.3,525,259.5l0.8,10.2l-7.9-6.4
				C572.7,548.8,400.5,463.8,162.9,502.4z"/>
			<path class="st46" d="M249.1,205c1.5-1.7,3.1-3.4,4.6-5.1c177.1,163,155.2,283.9-65.6,362.7l-9.9-0.1l7.8-6.2
				C408.1,481.7,429.2,364.6,249.1,205z"/>
			<path class="st39" d="M771.8,186.4c1.6,1.6,3.3,3.2,4.9,4.9C605.1,360.1,617.9,507.9,815,634.8l6,7.9l-9.7-2.3
				C616.6,509.8,603.5,358.5,771.8,186.4z"/>
			<path class="st37" d="M247.5,682.1c-1.5-1.7-3-3.5-4.5-5.2c184.1-155,236-122.3,155.7,97.9l-6.4,7.6l0.2-9.9
				C477,553.8,428.7,523.7,247.5,682.1z"/>
			<path class="st50" d="M225.6,654.4c-1.3-1.9-2.6-3.7-3.9-5.6C420.1,512.6,549.9,331.3,611.2,105l5.8-8.1l0.7,9.9
				C552.1,331.9,421.4,514.4,225.6,654.4z"/>
			<path class="st39" d="M221.1,648c-1.3-1.9-2.6-3.8-3.8-5.7c201.3-131.9,401.9-136.6,601.7-14l6.2,7.8l-9.7-2.1
				C618,507.6,419.9,512.3,221.1,648z"/>
			<path class="st37" d="M158.6,428c0.1-2.3,0.2-4.6,0.4-6.9c240.2,15.5,322.5,134.3,246.9,356.2l-6.3,7.7l-0.1-9.9
				C479.4,554.7,399.1,439,158.6,428z"/>
			<path class="st38" d="M185.2,307.7c0.9-2.1,1.8-4.2,2.7-6.3c221,95.4,281,37.3,180.3-174.4l-0.9-9.9l7,7.1
				C470.9,337.7,407.9,398.9,185.2,307.7z"/>
			<path class="st41" d="M188.2,300.5c0.9-2.1,1.8-4.2,2.8-6.3c218.8,100.2,443.8,170.2,674.8,210.2l8.6,5l-9.8,1.6
				C634.4,466.6,408.9,396.5,188.2,300.5z"/>
			<path class="st44" d="M218.1,245.4c1-1.6,2.1-3.1,3.1-4.6c198.7,135.8,203.4,134.5,14.1-3.7l-5.9-7.8l9.1,3.4
				C425.7,373.9,418.9,378.1,218.1,245.4z"/>
			<path class="st38" d="M254.3,199.2c1.3-1.4,2.5-2.7,3.8-4.1C432.2,361.4,467,339.5,362.4,129.7l-1.7-9.6l6.6,7.2
				C468.6,338.7,431,362.7,254.3,199.2z"/>
			<path class="st39" d="M258.8,194.5c1.3-1.3,2.6-2.7,3.9-4c171.1,169.3,357.6,313.4,559.6,432.4l6.6,7.1l-9.4-2.5
				C619.4,505.5,432.4,361.1,258.8,194.5z"/>
			<path class="st50" d="M627.3,789c-1.8,0.6-3.6,1.1-5.3,1.6c-68.4-230.7-74.1-459.8-16.8-687.2l5-8.4l0.3,9.7
				C549.6,331.2,555.3,559.3,627.3,789z"/>
			<path class="st37" d="M271.1,706.7c-1.3-1.3-2.7-2.6-4-3.9c168.1-172.2,216.4-146.7,144.8,76.5l-5.5,8l0.3-9.7
				C481.8,555.5,436.6,531.9,271.1,706.7z"/>
			<path class="st49" d="M216.8,641.5c-1-1.6-2-3.1-3-4.7c203.7-128.3,363.1-90.3,478.4,113.8l2.2,9.5l-6.9-6.9
				C575.3,547.4,418.5,510.2,216.8,641.5z"/>
			<path class="st39" d="M189.4,591.1c-0.8-1.7-1.5-3.4-2.2-5.1c221.4-94.3,434.2-83.9,638.3,31.4l6.8,7l-9.5-2.3
				C620.4,503.7,409.3,493.3,189.4,591.1z"/>
			<path class="st39" d="M159.1,420.2c0.1-1.9,0.3-3.7,0.4-5.6c239.9,19.9,462.9,85.6,669.1,197.2l6.9,6.9l-9.5-2.1
				C621.5,501.8,399.2,436.4,159.1,420.2z"/>
			<path class="st41" d="M621.1,790.8c-1.4,0.4-2.7,0.8-4.1,1.2c-65.1-231.7,18.1-329.3,249.7-292.7l8.9,3.6l-9.6,0.5
				C634.8,464.1,553.2,559.9,621.1,790.8z"/>
			<path class="st51" d="M558.4,803.4c-1.4,0.2-2.8,0.3-4.3,0.4c-23.2-239.6-127.4-287.4-312.5-143.5l-8.7,4.1l6.2-7.4
				C425.9,515.3,532.3,564.1,558.4,803.4z"/>
			<path class="st52" d="M444.3,797.6c-1.4-0.3-2.8-0.6-4.2-0.9c52.8-234.8-5.9-271.6-176-110.2l-8.3,4.9l5.4-7.9
				C433.3,524.1,494.3,562.2,444.3,797.6z"/>
			<path class="st51" d="M439.2,796.5c-1.4-0.3-2.8-0.6-4.2-1c56.2-234-7.2-277.8-190.2-131.2l-8.6,4.2l6-7.4
				C426.9,516.7,492.6,561.8,439.2,796.5z"/>
			<path class="st41" d="M213.3,636.1c-0.8-1.2-1.5-2.4-2.2-3.6c205.5-125.3,424.3-171.3,656.4-138.1l8.9,3.4l-9.6,0.7
				C635.1,462.5,417.3,508.3,213.3,636.1z"/>
			<path class="st53" d="M210.6,631.6c-0.7-1.2-1.5-2.4-2.2-3.7c207.3-122.3,209.4-124.9,6.3-7.7l-9.2,2.8l7.1-6.4
				C417.1,501.8,416.4,506.8,210.6,631.6z"/>
			<path class="st54" d="M161.6,493.4c-0.2-1.4-0.4-2.8-0.6-4.2c238.8-29.8,241.4-35.1,7.8-15.9l-9.5-1.4l9.2-2.8
				C402.3,452.6,400.1,460.8,161.6,493.4z"/>
			<path class="st48" d="M191.4,293.3c0.6-1.3,1.2-2.6,1.8-3.9c217.4,103.3,351.3,269.5,401.9,498.4l-0.1,9.6l-4-8.7
				C543.2,559.2,410,394.1,191.4,293.3z"/>
			<path class="st39" d="M221.7,240c0.6-0.8,1.1-1.6,1.7-2.4C420.7,375.5,623,499.1,830.3,608.5l7.6,5.7l-8.9-3.1
				C622.5,500,420.1,376.3,221.7,240z"/>
			<path class="st50" d="M590.9,90.6c1,0.2,1.9,0.4,2.9,0.6c-49.7,235.5-47.1,239.3,7.6,11.3l3.6-8.7l-0.8,9.4
				C547.6,330.7,543.2,326.5,590.9,90.6z"/>
			<path class="st49" d="M705.8,753.6c-0.8,0.5-1.7,1-2.6,1.5C580.6,548,578,545.9,695.5,748.8l3.4,8.8l-5.9-7.4
				C577.2,546.4,581.5,547.5,705.8,753.6z"/>
			<path class="st38" d="M674.7,770.3c-0.9,0.4-1.8,0.8-2.7,1.3C570.2,553.5,465.9,340.1,359,131.4l-2.9-9l5.5,7.7
				C466.7,339.7,571.1,553.1,674.7,770.3z"/>
			<path class="st38" d="M616,792.3c-1,0.3-1.9,0.5-2.9,0.8c-62.6-232.4-148.4-452.4-257.5-659.9l-3-9l5.6,7.6
				C465.6,340.3,551.5,560.4,616,792.3z"/>
			<path class="st39" d="M612.3,793.3c-1,0.3-1.9,0.5-2.9,0.8C549.3,561,623.6,498,832.1,605.1l7.6,5.6l-9-3
				C623.1,498.9,550.3,560.7,612.3,793.3z"/>
			<path class="st39" d="M553.2,803.9c-1,0.1-2,0.2-3,0.3c-20.6-239.8,73.9-307.3,283.6-202.4l7.7,5.5l-9-2.9
				C623.7,497.7,530.6,564.3,553.2,803.9z"/>
			<path class="st55" d="M549.3,804.2c-1,0.1-2,0.2-3,0.2c-18-240,14.8-250.5,98.7-31.6l2,9.3l-4.7-8.2
				C560.3,554.3,529.3,564.4,549.3,804.2z"/>
			<path class="st42" d="M434.1,795.3c-1-0.2-1.9-0.5-2.9-0.7c58.7-233.4,79.6-467.1,62.8-700.9l0.8-9.4l2.1,9.2
				C511.8,327.5,490.9,561.4,434.1,795.3z"/>
			<path class="st39" d="M266.5,702.2c-0.7-0.7-1.4-1.4-2.1-2.1c170-170.4,360.4-204.3,571.2-101.7l7.8,5.4l-9-2.8
				C624.3,496.6,435,530.4,266.5,702.2z"/>
			<path class="st52" d="M263.7,699.4c-0.7-0.7-1.4-1.4-2.1-2.1c171.8-168.6,173.5-171.3,5.2-8.1l-7.7,5.4l5.7-7.5
				C434.4,525.3,434.1,529.4,263.7,699.4z"/>
			<path class="st55" d="M186.8,585.1c-0.4-0.9-0.8-1.8-1.1-2.7c222.4-91.9,376.7-28.9,462.9,189.1l2.1,9.2l-4.8-8.2
				C561.5,553.8,408.5,491.3,186.8,585.1z"/>
			<path class="st38" d="M160.9,488.2c-0.1-1-0.2-2-0.3-3c239.1-27.2,303-144,191.7-350.3l-3.1-8.9l5.7,7.6
				C464.5,340.8,399.8,459,160.9,488.2z"/>
			<path class="st41" d="M160.5,484.3c-0.1-1-0.2-2-0.3-3c239.4-24.6,475.4-21.5,707.8,9.2l9.1,2.7l-9.5,0.2
				C635.4,460.8,399.7,457.7,160.5,484.3z"/>
			<path class="st39" d="M160.1,480.4c-0.1-1-0.2-2-0.3-3c239.7-22,465.5,17.1,677.4,117.4l7.8,5.3l-9.1-2.7
				C624.8,495.5,399.5,456.4,160.1,480.4z"/>
			<path class="st38" d="M158.3,446.4c0-1,0-2,0-3C399,444.1,462.5,341.8,349,136.7l-3.2-8.9l5.8,7.5
				C463.3,341.4,398.9,445.1,158.3,446.4z"/>
			<path class="st46" d="M158.3,442.5c0-1,0-2,0-3c240.7,3.3,251,45.5,31,126.6l-9.3,1.8l8.3-4.6C409,484.1,398.9,443.8,158.3,442.5
				z"/>
			<path class="st50" d="M159.6,413.7c0.1-1,0.2-2,0.3-3c239.6,22.5,385.6-80.6,437.9-309.1l3.5-8.8l-0.7,9.4
				C546.4,330.4,399.4,434.2,159.6,413.7z"/>
			<path class="st40" d="M193.6,288.6c0.4-0.9,0.9-1.8,1.3-2.7c216.2,105.7,374.2,52.4,473.8-159.8l5.3-7.8l-2.7,9.1
				C570,338.8,410.7,392.5,193.6,288.6z"/>
			<path class="st38" d="M223.9,236.8c0.3-0.5,0.6-0.9,1-1.4C421.2,374.8,461.8,342.3,346.7,138l-3.9-8.6l5.3,7.8
				C462.2,342,420.8,375.2,223.9,236.8z"/>
			<path class="st56" d="M225.4,234.7c0.3-0.5,0.6-0.9,1-1.4C421.6,374,583.1,542.7,710.8,739.4l4.4,8.3l-5.8-7.4
				C582.7,543.1,421.3,374.5,225.4,234.7z"/>
			<path class="st57" d="M263.3,189.8c0.4-0.4,0.8-0.8,1.2-1.2c169.9,170.5,323.9,350.5,462.1,539.8l4.8,8l-6.2-7.1
				C588,539.5,434,359.6,263.3,189.8z"/>
			<path class="st39" d="M274.7,178.9c0.4-0.4,0.8-0.8,1.2-1.1c162.2,177.8,349.6,316.1,562.3,414.9l8.1,4.7l-8.8-3.2
				C625.4,494.3,437.8,355.9,274.7,178.9z"/>
			<path class="st39" d="M445.5,91c0.5-0.1,1.1-0.2,1.6-0.3C495.2,326.5,626,493.1,839.3,590.3l8.2,4.6l-8.8-3.2
				C625.7,493.6,494.7,326.7,445.5,91z"/>
			<path class="st47" d="M488.2,84.8c0.6,0,1.1-0.1,1.7-0.1c19.6,239.9,46,243.8,79,11.7l2.1-9.1l-0.5,9.4
				C536.3,328.5,508.9,324.6,488.2,84.8z"/>
			<path class="st48" d="M630.1,100.9c0.5,0.2,1.1,0.3,1.6,0.5c-75,228.7-86.3,457.4-34.1,685.9l1.3,9.3l-2.9-8.9
				C544.8,558.9,556.2,329.9,630.1,100.9z"/>
			<path class="st57" d="M738.4,731.4c-0.4,0.3-0.9,0.7-1.3,1c-145.2-191.9-148-193.7-8.4-5.4l4.9,8l-6.2-7
				C588.7,539,592.3,540.1,738.4,731.4z"/>
			<path class="st56" d="M722.4,742.9c-0.5,0.3-0.9,0.6-1.4,0.9c-134.5-199.6-137.2-201.5-8.1-5.8l4.5,8.3l-5.8-7.4
				C583.4,542.6,587,543.9,722.4,742.9z"/>
			<path class="st39" d="M702.4,755.6c-0.5,0.3-1,0.6-1.4,0.8c-121.1-208-74.7-264.1,139.3-168.4l8.2,4.6l-8.9-3.1
				C626.1,492.8,580.3,548.2,702.4,755.6z"/>
			<path class="st48" d="M671.2,772c-0.5,0.2-1,0.5-1.5,0.7c-100.2-218.8-123.4-214.1-69.6,14l1.3,9.3l-2.9-8.9
				C545.7,558.7,569.9,553.6,671.2,772z"/>
			<path class="st37" d="M668.8,773.1c-0.5,0.2-1,0.5-1.5,0.7c-98.7-219.5-183-217.4-252.9,6.3l-3.6,8.7l2-9.2
				C483.8,556.2,569.1,554,668.8,773.1z"/>
			<path class="st51" d="M666.4,774.1c-0.5,0.2-1,0.5-1.5,0.7c-97.1-220.2-236.6-256.4-418.5-108.5l-7.8,5.3l6.8-6.5
				C428,518,568.3,554.4,666.4,774.1z"/>
			<path class="st46" d="M664,775.2c-0.5,0.2-1,0.4-1.5,0.7C567,555,409.6,485.9,190.2,568.6l-9,2.5l8.5-4
				C409.4,485.3,567.5,554.7,664,775.2z"/>
			<path class="st55" d="M608.5,794.3c-0.5,0.1-1.1,0.3-1.6,0.4c-58.4-233.5-43.7-241.5,44-24.1l2.7,9l-4.2-8.4
				C562.7,553.4,549,561.1,608.5,794.3z"/>
			<path class="st38" d="M545.4,804.5c-0.6,0-1.1,0.1-1.7,0.1C527.4,564.5,461,342.7,344.5,139.3l-3.9-8.5l5.3,7.7
				C461.5,342.5,528,564.5,545.4,804.5z"/>
			<path class="st37" d="M542.8,804.7c-0.6,0-1.1,0.1-1.7,0.1c-14.6-240.2-56.1-248.2-124.4-24l-3.5,8.7l2-9.2
				C484.6,556.4,527.1,564.5,542.8,804.7z"/>
			<path class="st38" d="M430.3,794.4c-0.5-0.1-1.1-0.3-1.6-0.4c60.4-233,31.6-450.8-86.4-653.4l-4-8.5l5.4,7.7
				C460.8,342.9,489.6,561.1,430.3,794.4z"/>
			<path class="st57" d="M427.8,793.7c-0.5-0.1-1.1-0.3-1.6-0.4c62.1-232.5,163.6-255.2,304.5-67.8l5,8l-6.3-7
				C589.3,538.5,488.8,560.9,427.8,793.7z"/>
			<path class="st56" d="M425.3,793c-0.5-0.1-1.1-0.3-1.6-0.4c63.7-232.1,160.9-250.8,291.4-56l4.5,8.2l-5.9-7.3
				C584.1,542.1,488,560.6,425.3,793z"/>
			<path class="st48" d="M170,535.7c-0.1-0.5-0.3-1.1-0.4-1.6c233.2-59.7,377.5,24.3,433,252.1l1.4,9.3l-3-8.9
				C546.5,558.5,402.8,474.9,170,535.7z"/>
			<path class="st37" d="M169.3,533.2c-0.1-0.5-0.3-1.1-0.4-1.6c233.6-58.1,317,25.3,250.3,250.1l-3.5,8.7l1.9-9.2
				C485.4,556.7,402.6,474,169.3,533.2z"/>
			<path class="st58" d="M168.7,530.6c-0.1-0.5-0.3-1.1-0.4-1.6c234-56.4,236.7-58.6,8-6.8l-9.3,1.3l8.9-2.8
				C404.8,469.8,402.4,473.2,168.7,530.6z"/>
			<path class="st46" d="M159.7,476.5c0-0.6-0.1-1.1-0.1-1.7c239.8-20.3,250.4,11.7,31.6,96l-9,2.6l8.4-4.1
				C409.7,486.1,399.4,455.2,159.7,476.5z"/>
			<path class="st59" d="M159.9,409.8c0.1-0.6,0.1-1.1,0.2-1.7c239.5,24.2,242.7,23.4,9.7-2.5l-9.2-1.9l9.4,0.2
				C402.8,431,399.5,432.9,159.9,409.8z"/>
			<path class="st46" d="M195.3,285.1c0.2-0.5,0.5-1,0.7-1.5c215.5,107.2,214.1,203.8-4,289.7l-9,2.6l8.4-4.2
				C410,486.9,411.3,391.3,195.3,285.1z"/>
			<path class="st46" d="M227,232.6c0.1-0.1,0.1-0.2,0.2-0.3c194.7,141.4,183.2,255.5-34.7,342.1l-8.8,3.3l8.6-3.6
				C410.3,487.7,421.8,373.8,227,232.6z"/>
			<path class="st60" d="M265.2,188c0.1-0.1,0.2-0.2,0.3-0.3c169.2,171.1,171.9,172.8,8.1,5.1l-6.4-6.8l6.7,6.6
				C437.5,360.5,434.6,359,265.2,188z"/>
			<path class="st55" d="M266.1,187.1c0.1-0.1,0.2-0.2,0.3-0.3C435,358.6,563.6,553,652.1,770.1l3.4,8.7l-3.7-8.6
				C563.4,553,434.9,358.7,266.1,187.1z"/>
			<path class="st38" d="M276.7,177.1c0.1-0.1,0.2-0.2,0.3-0.2c161.6,178.4,183,166.5,64.3-35.7l-4.6-8.2l4.9,8
				C460,343.3,438.4,355.3,276.7,177.1z"/>
			<path class="st41" d="M277.6,176.2c0.1-0.1,0.2-0.2,0.3-0.2c160.9,179,357.7,283.4,590.2,313.3l9.3,1.4l-9.3-1
				C635.5,459.5,438.7,355,277.6,176.2z"/>
			<path class="st55" d="M278.6,175.4c0.1-0.1,0.2-0.2,0.3-0.2C439.1,354.7,564,552.8,653.3,769.6l3.4,8.7l-3.7-8.6
				C563.8,552.9,439.1,354.8,278.6,175.4z"/>
			<path class="st48" d="M279.6,174.5c0.1-0.1,0.2-0.2,0.3-0.2c159.6,180.1,267.6,384,323.9,611.6l2.1,9.1l-2.4-9
				C547.3,558.3,439.4,354.5,279.6,174.5z"/>
			<path class="st37" d="M280.5,173.6c0.1-0.1,0.2-0.2,0.3-0.2C439.8,354.1,486.3,557,420.4,782l-2.8,8.9l2.5-9
				C486.2,556.9,439.7,354.2,280.5,173.6z"/>
			<path class="st46" d="M281.5,172.8c0.1-0.1,0.2-0.2,0.3-0.2c158.3,181.2,128.7,315.6-88.8,403l-8.7,3.3l8.6-3.7
				C410.5,488.1,440,353.9,281.5,172.8z"/>
			<path class="st43" d="M330.9,136.5c0.1-0.1,0.2-0.1,0.3-0.2c125.4,205.5,164.9,193.3,118.7-36.6l-1.7-9.2l2,9.1
				C496.3,329.5,456.5,341.8,330.9,136.5z"/>
			<path class="st39" d="M490.8,84.6c0.1,0,0.2,0,0.4,0C510,324.6,626.5,492,840.9,586.9l8.5,4l-8.6-3.6
				C626.4,492,509.8,324.5,490.8,84.6z"/>
			<path class="st39" d="M568.9,86.8c0.1,0,0.2,0,0.4,0.1C536,325.3,626.7,491.5,841.4,585.7l8.5,3.9l-8.6-3.6
				C626.6,491.6,535.8,325.3,568.9,86.8z"/>
			<path class="st39" d="M594.7,91.4c0.1,0,0.2,0.1,0.4,0.1c-50.5,235.3,31.7,399.7,246.8,493.1l8.5,3.9l-8.6-3.6
				C626.8,491.3,544.4,326.8,594.7,91.4z"/>
			<path class="st42" d="M632.6,101.7c0.1,0,0.2,0.1,0.3,0.1c-75.8,228.4-122.5,225.8-140.2-8l-0.5-9.3l0.9,9.3
				C510.6,327.6,557.1,330.2,632.6,101.7z"/>
			<path class="st50" d="M633.8,102.1c0.1,0,0.2,0.1,0.3,0.1c-76.6,228.2-89.2,227.9-37.7-0.8l2.2-9.1l-1.9,9.2
				C545.1,330.1,557.5,330.3,633.8,102.1z"/>
			<path class="st55" d="M635.1,102.5c0.1,0,0.2,0.1,0.3,0.1c-77.4,227.9-71.1,450.1,19,666.5l3.4,8.7l-3.8-8.6
				C564.2,552.7,557.9,330.5,635.1,102.5z"/>
			<path class="st37" d="M636.3,102.9c0.1,0,0.2,0.1,0.3,0.1c-78.2,227.6-149.9,454-215,679.3l-2.8,8.9l2.4-9
				C486.6,557,558.3,330.6,636.3,102.9z"/>
			<path class="st39" d="M661.6,776.2c-0.1,0-0.2,0.1-0.3,0.1C566.6,555,627,490.7,842.4,583.3l8.5,3.9l-8.7-3.5
				C626.9,490.9,566.7,555,661.6,776.2z"/>
			<path class="st45" d="M660.4,776.7c-0.1,0-0.2,0.1-0.3,0.1c-93.9-221.6-134.9-215.4-122.9,18.8l0.3,9.4l-0.6-9.3
				C525.1,561.5,566.3,555.2,660.4,776.7z"/>
			<path class="st50" d="M540.2,804.9c-0.1,0-0.2,0-0.4,0c-13.7-240.3,4.7-474.9,55.4-703.8l2.2-9.1l-1.8,9.2
				C544.7,330,526.3,564.6,540.2,804.9z"/>
			<path class="st44" d="M538.9,804.9c-0.1,0-0.2,0-0.4,0c-12.9-240.3-123.5-414.1-332-521.4l-8.2-4.4l8.4,4.1
				C415.1,390.7,525.8,564.6,538.9,804.9z"/>
			<path class="st50" d="M422.8,792.3c-0.1,0-0.2-0.1-0.4-0.1C487,560.4,544.2,329.9,594,100.8l2.2-9.1l-1.8,9.2
				C544.3,329.9,487.1,560.4,422.8,792.3z"/>
			<path class="st38" d="M242.5,676.2c-0.1-0.1-0.2-0.2-0.2-0.3C427,521.6,459.6,343.5,340.2,141.8l-4.6-8.1l4.9,8
				C459.7,343.5,427,521.7,242.5,676.2z"/>
			<path class="st51" d="M241.6,675.2c-0.1-0.1-0.2-0.2-0.2-0.3c185.3-153.6,187.2-156.2,5.8-7.7l-7.4,5.8l7.1-6.1
				C428.5,518.6,426.7,521.4,241.6,675.2z"/>
			<path class="st38" d="M207.9,627.2c-0.1-0.1-0.1-0.2-0.2-0.3c207.7-121.6,251.5-283,131.3-484.4l-4.6-8.1l4.9,7.9
				C459.3,343.7,415.5,505.4,207.9,627.2z"/>
			<path class="st37" d="M207.2,626c-0.1-0.1-0.1-0.2-0.2-0.3c208.2-120.8,280.1-68.5,215.8,156.9l-2.7,8.9l2.4-9
				C487,557.2,415.3,505,207.2,626z"/>
			<path class="st37" d="M185.3,581.5c0-0.1-0.1-0.2-0.1-0.3C407.9,490,487.5,557.3,424.1,783l-2.7,9l2.4-9.1
				C487.4,557.3,408,490.1,185.3,581.5z"/>
			<path class="st38" d="M168.1,528.1c0-0.1-0.1-0.2-0.1-0.4C402.2,472.2,458.8,344,338,143.1l-4.7-8.1l5,7.9
				C458.9,344,402.2,472.3,168.1,528.1z"/>
			<path class="st51" d="M167.8,526.8c0-0.1-0.1-0.2-0.1-0.4c234.4-54.7,261.2-7.4,80.3,141.8l-7.3,5.8l7.1-6.1
				C428.8,519,402.1,471.9,167.8,526.8z"/>
			<path class="st44" d="M167.5,525.6c0-0.1-0.1-0.2-0.1-0.4c234.6-53.8,247.5-134,38.6-240.5l-8.2-4.4l8.4,4.1
				C414.9,391.1,402,471.5,167.5,525.6z"/>
			<path class="st39" d="M158.3,438.6c0-0.1,0-0.2,0-0.4c240.7,4.1,468.8,52.1,684.6,143.9l8.5,3.8l-8.7-3.5
				C627.1,490.5,399,442.5,158.3,438.6z"/>
			<path class="st38" d="M160.2,407.2c0-0.1,0-0.2,0-0.4c239.4,25.1,298.3-62.6,176.7-263.1l-4.7-8.1l5,7.9
				C458.6,344.2,399.6,432.1,160.2,407.2z"/>
			<path class="st46" d="M160.3,405.9c0-0.1,0-0.2,0-0.4c239.3,25.9,250.3,83,33.1,171.2l-8.7,3.3l8.6-3.7
				C410.6,488.5,399.6,431.6,160.3,405.9z"/>
			<path class="st55" d="M196.5,282.8c0.1-0.1,0.1-0.2,0.2-0.3c215.1,108,368.1,270.1,459,486.2l3.5,8.7l-3.8-8.6
				C564.6,552.6,411.7,390.6,196.5,282.8z"/>
			<path class="st52" d="M197.1,281.6c0.1-0.1,0.1-0.2,0.2-0.3C412,390.1,435.5,526.4,267.7,690.1l-6.8,6.4l6.6-6.7
				C435.3,526.3,411.9,390.2,197.1,281.6z"/>
		</g>
	</g>
</g>
</svg>
