<?xml version="1.0" encoding="utf-8"?>
<!-- Generator: Adobe Illustrator 25.2.1, SVG Export Plug-In . SVG Version: 6.00 Build 0)  -->
<svg version="1.1" id="图层_1" xmlns="http://www.w3.org/2000/svg" xmlns:xlink="http://www.w3.org/1999/xlink" x="0px" y="0px"
	 viewBox="0 0 59.2 56.4" style="enable-background:new 0 0 59.2 56.4;" xml:space="preserve">
<style type="text/css">
	.投影{fill:none;}
	.圆角_x0020_2_x0020_pt{fill:#FFFFFF;stroke:#000000;stroke-miterlimit:10;}
	.实时对称_x0020_X{fill:none;}
	.柔化斜面{fill:url(#SVGID_1_);}
	.黄昏{fill:#FFFFFF;}
	.植物_GS{fill:#FFE100;}
	.高卷式发型_GS{fill-rule:evenodd;clip-rule:evenodd;fill:#4CACE2;}
	.st0{fill:#2E8DB9;}
	.st1{fill:#9ABE6A;}
	.st2{fill:#5FAD94;}
</style>
<linearGradient id="SVGID_1_" gradientUnits="userSpaceOnUse" x1="-267.9172" y1="-392.4459" x2="-267.2101" y2="-391.7387">
	<stop  offset="0" style="stop-color:#E6E7EA"/>
	<stop  offset="0.1738" style="stop-color:#E2E3E6"/>
	<stop  offset="0.352" style="stop-color:#D6D6D8"/>
	<stop  offset="0.5323" style="stop-color:#C0C0C1"/>
	<stop  offset="0.7139" style="stop-color:#A3A4A3"/>
	<stop  offset="0.8949" style="stop-color:#7F8281"/>
	<stop  offset="1" style="stop-color:#686E6C"/>
</linearGradient>
<path class="st0" d="M5.3,14.7v-2.8c0,0-0.1-6.5,4.8-6.5c4.4,0,8.2,0,8.2,0v9.3H5.3"/>
<rect x="5.3" y="19.1" class="st1" width="13" height="8"/>
<rect x="5.3" y="31.1" class="st1" width="13" height="8"/>
<path class="st2" d="M5.3,43.9v2.8c0,0-0.1,6.5,4.9,6.5c4.4,0,8.2,0,8.2,0v-9.3H5.3"/>
<rect x="40.7" y="18.7" class="st2" width="13" height="8"/>
<rect x="40.7" y="30.7" class="st0" width="13" height="8"/>
<path class="st1" d="M53.8,43.5v2.8c0,0,0.1,6.5-4.9,6.5c-4.4,0-8.2,0-8.2,0v-9.3H53.8"/>
<path class="st2" d="M36.2,53.2h-14V5.4h26.6c0,0,4.9,0.7,4.9,9.3H36L36.2,53.2z"/>
</svg>
