<?xml version="1.0" encoding="utf-8"?>
<!-- Generator: Adobe Illustrator 25.2.1, SVG Export Plug-In . SVG Version: 6.00 Build 0)  -->
<svg version="1.1" id="图层_1" xmlns="http://www.w3.org/2000/svg" xmlns:xlink="http://www.w3.org/1999/xlink" x="0px" y="0px"
	 viewBox="0 0 79 78.2" style="enable-background:new 0 0 79 78.2;" xml:space="preserve">
<style type="text/css">
	.st0{fill:#4182BC;}
	.st1{fill:#22A3DD;}
	.st2{fill:#CED632;}
	.st3{fill:#A1AE3C;}
</style>
<g>
	<g>
		<polygon class="st0" points="68.1,12.5 41.6,5.4 45.9,21.3 56.5,24.1 		"/>
		<polygon class="st1" points="51.6,42.1 51.5,42.3 40.9,39.5 29.3,51.2 55.9,58 		"/>
		<path class="st1" d="M75.1,38.6l-7-26.1L56.5,24.1l2.8,10.6l15.5,4C74.9,38.6,75,38.6,75.1,38.6z"/>
		<path class="st0" d="M74.9,38.7C74.9,38.7,74.9,38.7,74.9,38.7l-15.7-4.3l-7.6,7.7L55.9,58L74.9,38.7z"/>
	</g>
	<g>
		<polygon class="st2" points="10.9,65.7 37.4,72.8 33.1,56.9 22.5,54.1 		"/>
		<polygon class="st3" points="27.4,36.1 27.5,35.9 38.1,38.7 49.7,27 23.1,20.1 		"/>
		<path class="st3" d="M3.9,39.6l7,26.1l11.6-11.6l-2.8-10.6l-15.5-4C4.1,39.6,4,39.6,3.9,39.6z"/>
		<path class="st2" d="M4.1,39.4C4.1,39.5,4.1,39.5,4.1,39.4l15.7,4.3l7.6-7.7l-4.3-15.9L4.1,39.4z"/>
	</g>
</g>
</svg>
