<?xml version="1.0" encoding="utf-8"?>
<!-- Generator: Adobe Illustrator 25.2.1, SVG Export Plug-In . SVG Version: 6.00 Build 0)  -->
<svg version="1.1" id="图层_1" xmlns="http://www.w3.org/2000/svg" xmlns:xlink="http://www.w3.org/1999/xlink" x="0px" y="0px"
	 viewBox="0 0 79 78.2" style="enable-background:new 0 0 79 78.2;" xml:space="preserve">
<style type="text/css">
	.st0{fill:#7FAD29;}
	.st1{fill:#1F89CB;}
</style>
<path class="st0" d="M40.4,42.6c-0.3,0-0.6-0.1-0.9-0.2L5.4,26c-0.7-0.3-1.1-1-1.1-1.8c0-0.8,0.5-1.5,1.2-1.8L39.7,6.3
	c0.5-0.3,1.2-0.3,1.7,0l34.1,16.4c0.7,0.3,1.1,1,1.1,1.8s-0.5,1.5-1.2,1.8L41.3,42.4C41,42.6,40.7,42.6,40.4,42.6z M11,24.3
	l29.5,14.1L70,24.5L40.6,10.3L11,24.3z"/>
<path class="st1" d="M40.4,56.3c-0.3,0-0.6-0.1-0.9-0.2L5.4,39.7c-1-0.5-1.4-1.7-0.9-2.7c0.5-1,1.7-1.4,2.7-0.9l33.3,16l33.4-15.7
	c1-0.5,2.2,0,2.7,1c0.5,1,0,2.2-1,2.7L41.3,56.1C41,56.3,40.7,56.3,40.4,56.3z"/>
<path class="st1" d="M40.3,70c-0.3,0-0.6-0.1-0.9-0.2L5.3,53.4c-1-0.5-1.4-1.7-0.9-2.7c0.5-1,1.7-1.4,2.7-0.9l33.3,16l33.4-15.7
	c1-0.5,2.2,0,2.7,1c0.5,1,0,2.2-1,2.7L41.2,69.8C40.9,70,40.6,70,40.3,70z"/>
</svg>
