<?xml version="1.0" encoding="utf-8"?>
<!-- Generator: Adobe Illustrator 25.2.1, SVG Export Plug-In . SVG Version: 6.00 Build 0)  -->
<svg version="1.1" id="图层_1" xmlns="http://www.w3.org/2000/svg" xmlns:xlink="http://www.w3.org/1999/xlink" x="0px" y="0px"
	 viewBox="0 0 59.2 56.4" style="enable-background:new 0 0 59.2 56.4;" xml:space="preserve">
<style type="text/css">
	.st0{fill:url(#SVGID_1_);}
	.st1{fill:url(#SVGID_2_);}
	.st2{fill:url(#SVGID_3_);}
	.st3{fill:url(#SVGID_4_);}
	.st4{fill:url(#SVGID_5_);}
	.st5{fill:url(#SVGID_6_);}
	.st6{fill:url(#SVGID_7_);}
	.st7{fill:url(#SVGID_8_);}
</style>
<g>
	
		<radialGradient id="SVGID_1_" cx="-32.6011" cy="-69.1031" r="32.1728" gradientTransform="matrix(0.8289 0.5512 -0.5594 0.8344 6.5241 96.3018)" gradientUnits="userSpaceOnUse">
		<stop  offset="4.975120e-03" style="stop-color:#FFFFFF"/>
		<stop  offset="0.3134" style="stop-color:#DAE4AC"/>
		<stop  offset="0.5871" style="stop-color:#AAC13E"/>
		<stop  offset="0.7114" style="stop-color:#80B246"/>
		<stop  offset="1" style="stop-color:#036336"/>
	</radialGradient>
	<path class="st0" d="M51.3,13.4c-0.1-1.8-1.2-3.5-3.7-5.1C41,4,27.4,2.8,17.3,5.7c-6.5,1.9-9.9,4.9-9.8,8c0,0.9,0.3,13.4,0.3,14.9
		c0.4-2.9,3.8-5.6,9.8-7.3c10.1-2.9,23.7-1.7,30.4,2.6c2.2,1.4,3.4,3,3.6,4.6C51.6,26.8,51.4,14.8,51.3,13.4z"/>
	
		<radialGradient id="SVGID_2_" cx="1471.6188" cy="-290.6576" r="32.1728" gradientTransform="matrix(-0.8289 -0.5512 0.5594 -0.8344 1423.7699 604.1544)" gradientUnits="userSpaceOnUse">
		<stop  offset="0" style="stop-color:#FFFFFF"/>
		<stop  offset="0.315" style="stop-color:#AFD7E3"/>
		<stop  offset="0.6648" style="stop-color:#3D9DC9"/>
		<stop  offset="1" style="stop-color:#34608A"/>
	</radialGradient>
	<path class="st1" d="M8.2,42.7c0.1,1.8,1.2,3.5,3.7,5.1c6.7,4.3,20.3,5.5,30.4,2.6c6.5-1.9,9.9-4.9,9.8-8c0-0.9-0.3-13.4-0.3-14.9
		c-0.4,2.9-3.8,5.6-9.8,7.3c-10.1,2.9-23.7,1.7-30.4-2.6c-2.2-1.4-3.4-3-3.6-4.6C7.9,29.4,8.1,41.4,8.2,42.7z"/>
	
		<radialGradient id="SVGID_3_" cx="-4.7549" cy="70.1289" r="25.1845" gradientTransform="matrix(0.7071 0.7002 -0.7071 0.714 91.9619 -14.2082)" gradientUnits="userSpaceOnUse">
		<stop  offset="0" style="stop-color:#FFFFFF"/>
		<stop  offset="0.315" style="stop-color:#AFD7E3"/>
		<stop  offset="0.6648" style="stop-color:#3D9DC9"/>
		<stop  offset="1" style="stop-color:#34608A"/>
	</radialGradient>
	<path class="st2" d="M52.1,42.4c0-0.9-0.3-13.4-0.3-14.9c-0.4,2.9-3.8,5.6-9.8,7.3c-10.1,2.9-23.7,1.7-30.4-2.6
		c-2.2-1.4-3.4-3-3.6-4.6c0,1.8,0.2,13.7,0.2,15.1c0.1,1.8,1.2,3.5,3.7,5.1c6.7,4.3,20.3,5.5,30.4,2.6
		C48.7,48.6,52.2,45.5,52.1,42.4z M42.1,49.9c-9.9,2.8-23.4,1.7-29.9-2.6c-0.7-0.4-1.3-0.9-1.8-1.4c-1-1-1.6-2.1-1.6-3.2
		c0-1-0.1-8.2-0.2-12.3C8.8,30.7,9,31,9.3,31.2c0.5,0.5,1.2,1.1,1.9,1.5c6.8,4.4,20.7,5.6,30.9,2.7c4.3-1.2,7.5-3.1,9.1-5.2
		c0.1,4.2,0.2,11.5,0.3,12.2C51.6,45.3,48,48.2,42.1,49.9z"/>
	
		<radialGradient id="SVGID_4_" cx="-55.1605" cy="61.1802" r="36.6545" gradientTransform="matrix(0.7071 0.7002 -0.7071 0.714 91.9619 -14.2085)" gradientUnits="userSpaceOnUse">
		<stop  offset="4.975120e-03" style="stop-color:#FFFFFF"/>
		<stop  offset="0.3134" style="stop-color:#DAE4AC"/>
		<stop  offset="0.5871" style="stop-color:#AAC13E"/>
		<stop  offset="0.7114" style="stop-color:#80B246"/>
		<stop  offset="1" style="stop-color:#036336"/>
	</radialGradient>
	<path class="st3" d="M51.3,13.4c-0.1-1.8-1.2-3.5-3.7-5.1C41,4,27.4,2.8,17.3,5.7c-6.5,1.9-9.9,4.9-9.8,8c0,0.9,0.3,13.4,0.3,14.9
		c0.4-2.9,3.8-5.6,9.8-7.3c10.1-2.9,23.7-1.7,30.4,2.6c2.2,1.4,3.4,3,3.6,4.6C51.6,26.8,51.4,14.8,51.3,13.4z M50.2,25
		c-0.5-0.5-1.2-1.1-2-1.5c-6.8-4.4-20.7-5.6-30.9-2.7C13,22,9.9,23.8,8.3,25.9C8.2,21.8,8.1,14.4,8,13.7c-0.1-2.9,3.5-5.8,9.4-7.4
		c9.9-2.9,23.4-1.7,29.9,2.6c0.7,0.4,1.3,0.9,1.8,1.4c1,1,1.6,2.1,1.6,3.2c0,1,0.1,8.2,0.2,12.3C50.7,25.5,50.5,25.2,50.2,25z"/>
	
		<radialGradient id="SVGID_5_" cx="45.5443" cy="-169.6208" r="32.5774" gradientTransform="matrix(0.9759 -0.1963 0.1945 0.9855 5.66 206.3406)" gradientUnits="userSpaceOnUse">
		<stop  offset="4.975120e-03" style="stop-color:#FFFFFF"/>
		<stop  offset="0.3134" style="stop-color:#DAE4AC"/>
		<stop  offset="0.5871" style="stop-color:#AAC13E"/>
		<stop  offset="0.7114" style="stop-color:#80B246"/>
		<stop  offset="1" style="stop-color:#036336"/>
	</radialGradient>
	<path class="st4" d="M34.7,2.5c-1.3-1.2-3.4-1.6-6.2-1C20.7,3.1,10.2,11.9,5.1,21.1C1.8,27,1.6,31.6,3.9,33.7
		c0.6,0.6,9.7,9.3,10.7,10.3c-1.8-2.3-1.3-6.7,1.7-12.1c5.1-9.2,15.6-18,23.4-19.7c2.6-0.5,4.5-0.3,5.8,0.7
		C44.3,11.8,35.7,3.4,34.7,2.5z"/>
	
		<radialGradient id="SVGID_6_" cx="1393.6653" cy="-190.9218" r="32.1728" gradientTransform="matrix(-0.9759 0.1963 -0.1945 -0.9855 1365.8066 -436.6673)" gradientUnits="userSpaceOnUse">
		<stop  offset="0" style="stop-color:#FFFFFF"/>
		<stop  offset="0.315" style="stop-color:#AFD7E3"/>
		<stop  offset="0.6648" style="stop-color:#3D9DC9"/>
		<stop  offset="1" style="stop-color:#34608A"/>
	</radialGradient>
	<path class="st5" d="M24.5,53.6c1.3,1.2,3.4,1.6,6.2,1C38.5,53,49,44.2,54.1,35c3.3-5.9,3.5-10.5,1.2-12.6
		c-0.6-0.6-9.7-9.3-10.7-10.3c1.7,2.3,1.3,6.7-1.7,12.1c-5.1,9.2-15.6,18-23.4,19.7c-2.6,0.5-4.5,0.3-5.8-0.7
		C14.9,44.3,23.5,52.7,24.5,53.6z"/>
	
		<radialGradient id="SVGID_7_" cx="52.1033" cy="-42.8094" r="25.1833" gradientTransform="matrix(0.9951 -4.900000e-03 4.900000e-03 1.0049 -12.5426 67.8782)" gradientUnits="userSpaceOnUse">
		<stop  offset="0" style="stop-color:#FFFFFF"/>
		<stop  offset="0.315" style="stop-color:#AFD7E3"/>
		<stop  offset="0.6648" style="stop-color:#3D9DC9"/>
		<stop  offset="1" style="stop-color:#34608A"/>
	</radialGradient>
	<path class="st6" d="M55.3,22.4c-0.6-0.6-9.7-9.3-10.7-10.3c1.7,2.3,1.3,6.7-1.7,12.1c-5.1,9.2-15.6,18-23.4,19.7
		c-2.6,0.5-4.5,0.3-5.8-0.7c1.2,1.2,9.8,9.6,10.8,10.5c1.3,1.2,3.4,1.6,6.2,1C38.5,53,49,44.2,54.1,35
		C57.3,29.1,57.6,24.5,55.3,22.4z M53.5,34.7c-5,9-15.3,17.7-23,19.4c-0.8,0.2-1.5,0.3-2.2,0.3c-1.5,0-2.6-0.4-3.4-1.1
		c-0.7-0.7-5.9-5.7-8.8-8.6c0.3,0,0.7,0.1,1.1,0.1c0.8,0,1.6-0.1,2.5-0.3c7.9-1.7,18.6-10.6,23.8-20c2.2-3.9,3.1-7.5,2.7-10.1
		c3,2.9,8.3,8,8.8,8.4C57,24.8,56.5,29.3,53.5,34.7z"/>
	
		<radialGradient id="SVGID_8_" cx="2.0394" cy="-51.6699" r="47.7694" gradientTransform="matrix(0.9951 -4.900000e-03 4.900000e-03 1.0049 -12.5426 67.8782)" gradientUnits="userSpaceOnUse">
		<stop  offset="4.975120e-03" style="stop-color:#FFFFFF"/>
		<stop  offset="0.3134" style="stop-color:#DAE4AC"/>
		<stop  offset="0.5871" style="stop-color:#AAC13E"/>
		<stop  offset="0.7114" style="stop-color:#80B246"/>
		<stop  offset="1" style="stop-color:#036336"/>
	</radialGradient>
	<path class="st7" d="M34.7,2.5c-1.3-1.2-3.4-1.6-6.2-1C20.7,3.1,10.2,11.9,5.1,21.1C1.8,27,1.6,31.6,3.9,33.7
		c0.6,0.6,9.7,9.3,10.7,10.3c-1.8-2.3-1.3-6.7,1.7-12.1c5.1-9.2,15.6-18,23.4-19.7c2.6-0.5,4.5-0.3,5.8,0.7
		C44.3,11.8,35.7,3.4,34.7,2.5z M42,11.4c-0.8,0-1.6,0.1-2.5,0.3c-7.9,1.7-18.6,10.6-23.8,20c-2.2,3.9-3.1,7.5-2.7,10.1
		c-3-2.9-8.3-8-8.8-8.4c-2.1-2-1.6-6.5,1.4-11.9c5-9,15.3-17.7,23-19.4c0.8-0.2,1.5-0.3,2.2-0.3c1.5,0,2.6,0.4,3.4,1.1
		c0.7,0.7,5.9,5.7,8.8,8.6C42.8,11.4,42.4,11.4,42,11.4z"/>
</g>
</svg>
