<?xml version="1.0" encoding="utf-8"?>
<!-- Generator: Adobe Illustrator 25.2.1, SVG Export Plug-In . SVG Version: 6.00 Build 0)  -->
<svg version="1.1" id="图层_1" xmlns="http://www.w3.org/2000/svg" xmlns:xlink="http://www.w3.org/1999/xlink" x="0px" y="0px"
	 viewBox="0 0 671 345.9" style="enable-background:new 0 0 671 345.9;" xml:space="preserve">
<style type="text/css">
	.st0{fill:#FFFFFF;}
</style>
<g>
	<g>
		<g>
			<path class="st0" d="M145.5,73.2c1-1,2.4-1.7,3.9-1.7c0.8-2.6,1.5-5.4,2.1-8.2c-1.3-0.6-2.2-1.7-2.7-3.1
				c-5.5,0.6-11.9,1.6-18.6,3.5c0,0,0,0.1,0,0.1c0,0.3,0,0.6-0.1,0.8C135,66.8,140.2,69.6,145.5,73.2z"/>
			<path class="st0" d="M121,110.6c1-1.2,2.5-2,4.2-2c1.1,0,2.1,0.3,2.9,0.8c6.5-7.1,13-16.5,17.8-28.4c-1.2-1-2-2.5-2-4.2
				c0-0.7,0.1-1.4,0.4-2.1c-4.4-3-9.4-5.9-14.9-8.4c-0.9,1.7-2.7,2.8-4.8,2.8c-1.8,0-3.5-0.9-4.4-2.3c-0.2,0.1-0.3,0.1-0.5,0.2
				c-8.5,3.4-17.3,8.6-25.6,15.3c0.4,0.8,0.6,1.6,0.6,2.5c0,1.3-0.4,2.4-1.1,3.3C100,95.6,109.1,104,121,110.6z"/>
			<path class="st0" d="M139.7,118.4c0.8-1.9,2.7-3.2,4.9-3.2c3-7.9,7.1-14.6,11.4-20.1c0.8-1,1.5-1.9,2.3-2.8
				c-0.5-0.8-0.8-1.8-0.8-2.8c0-1.1,0.3-2.1,0.9-3c-1.8-1.7-3.6-3.5-5.7-5.3c-0.9,0.7-2,1.1-3.3,1.1c-0.4,0-0.8,0-1.2-0.2
				c-3.8,9.5-9.6,19.9-18.3,29.2c0.4,0.8,0.7,1.7,0.7,2.6c0,0.4,0,0.8-0.1,1.1C133.5,116.4,136.5,117.5,139.7,118.4z"/>
			<path class="st0" d="M165.4,121.9c3.8-4.4,6.9-9.5,8.9-15.1c-0.8-1.5-3.8-6.3-8.9-12.5c-0.8,0.4-1.6,0.6-2.6,0.6
				c-1.1,0-2.2-0.4-3.1-0.9c-3.2,3.7-5.8,7.4-7.9,11c-2.1,3.7-3.8,7.3-5,10.7c1.9,0.8,3.2,2.8,3.2,5c0,0,0,0,0,0
				C154.9,121.5,160,122,165.4,121.9z"/>
			<path class="st0" d="M149.7,122.8c-0.8,1.9-2.7,3.3-5,3.3c-0.3,0-0.6,0-0.9-0.1c-1.3,5.9-1.4,10-1.4,10.9
				c8-2.4,15.2-6.8,20.9-12.7C162.1,124.2,157,124.2,149.7,122.8z"/>
			<path class="st0" d="M155.5,53.2c1.9,0.5,3.3,2.1,3.8,4c1.9,0,3.8,0,5.8,0.1c-2.7-3.1-5.8-5.8-9.2-8.1
				C155.7,49.9,155.7,51.3,155.5,53.2z"/>
			<path class="st0" d="M156.4,81.9c1.1,1,2.2,2.1,3.3,3.2c0.9-0.6,2-1,3.2-1c1,0,1.9,0.3,2.7,0.7c4.6-4.2,8.5-6.8,10.1-7.8
				c-1.7-6.4-4.7-12.2-8.6-17.2c-1.3-0.1-4-0.3-7.9-0.2c-0.5,2.5-2.7,4.3-5.3,4.3c0,0-0.1,0-0.1,0c-0.5,2.5-1.2,5.3-2,8.2
				c1.8,0.9,3.1,2.7,3.1,4.9c0,1.1-0.3,2-0.8,2.9C154.9,80.5,155.6,81.2,156.4,81.9z"/>
			<path class="st0" d="M140,137.4c0.2-4.3,0.8-8.4,1.6-12.2c-1.5-1-2.4-2.6-2.4-4.5c0-0.1,0-0.2,0-0.3c-3-0.9-6.2-1.9-9.5-3.3
				c-1,1.5-2.6,2.4-4.5,2.4c-1,0-2-0.3-2.8-0.8c-5.5,4.7-11.9,9-19.4,12.6l-2.2-1.4c0,0,9.1-3.6,19.9-13c-0.5-0.8-0.8-1.8-0.8-2.8
				c0-0.5,0.1-1,0.2-1.5c-9.5-5.1-19.3-12.3-28.2-22.7c-0.7,0.3-1.5,0.6-2.4,0.6c-1.2,0-2.2-0.4-3.1-1C84.1,91.5,82,93.7,80,96v-3.2
				c0,0,1.6-2,4.6-5.1c-0.5-0.8-0.7-1.7-0.7-2.7c0-1.4,0.5-2.6,1.3-3.6c-1.3-1.9-2.5-3.8-3.8-5.8l1-2.8c0,0,1.6,2.9,4.7,7.3
				c0.7-0.3,1.4-0.5,2.2-0.5c1.2,0,2.2,0.4,3.1,1c2.5-2.1,5.3-4.3,8.4-6.4c5.2-3.6,11.3-7,18.5-9.8c0-0.2,0-0.4,0-0.6
				c0-0.4,0-0.8,0.1-1.1c-4.4-1.4-9.2-2.6-14.3-3.4c-4.5-0.6-9.2-0.7-14.1-0.9l1.5-2c0,0,11.7-0.7,27.7,4.5c1-1.5,2.6-2.4,4.5-2.4
				c2,0,3.7,1.1,4.7,2.6c5.7-1.6,12.1-2.7,19.2-3.4c0.3-2.4,2.3-4.4,4.8-4.7c0.2-1.7,0.4-3.4,0.5-5.1c-7.5-4.6-16.2-7.2-25.6-7.2
				C101,40.6,79,62.7,79,89.8s22,49.2,49.2,49.2c4.5,0,8.8-0.6,12.9-1.7L140,137.4z"/>
			<path class="st0" d="M176.2,79.2c-3.2,2.3-6.1,4.7-8.9,7.2c0.6,0.9,1,2,1,3.2c0,1.3-0.5,2.5-1.3,3.5c0.7,0.9,1.4,1.7,2.1,2.6
				c2.1,2.8,3.9,5.9,5.9,8.9c1.5-4.7,2.3-9.6,2.3-14.7C177.4,86.2,177,82.6,176.2,79.2z"/>
		</g>
		<path class="st0" d="M100.6,170.2c1-0.1,2-0.1,3.1-0.1c0,0-38.5-1.7-50.9-19.9c-6.9-10.2-6.4-25.4,15.5-48.6c0,0,0-0.1,0-0.3
			c0,0,0.1-0.1,0.2-0.1c0,0-0.1-0.3-0.2-0.8c-0.3-4.1-0.9-17.2,1.2-22.9c0,0-19.4,11.6-34.3,26.4C11.9,127-2.7,160.7,61.3,169.8
			c8.8,1.3,19.5,1.5,30.5,1c2.6-0.1,5.3-0.4,8.2-0.6c1,0,2,0.1,3,0.1C103,170.3,102.1,170.3,100.6,170.2z"/>
		<path class="st0" d="M297,18.9c0,0-76-6.2-140.5,18.9l9.9,6.1c0,0,0,0,0.1,0l0.1,0c0,0,47.3-17.7,100.6-23.8c0,0-0.8,0-2.4,0.2
			C275.8,19,286.7,18.4,297,18.9z"/>
		<path class="st0" d="M221,74.8v-8h-10.8h-0.8h-0.8c-6.1,0-10.9,4.2-10.9,9.4l-0.2,50.8v10.7h12.7c6.1,0,10.9-4.2,10.9-9.4
			C221.1,128.2,221.1,75.3,221,74.8z"/>
		<path class="st0" d="M288.2,66.7l-0.3,38.2L261,66.7V67l-0.2-0.2h-9.4H251c-5.8,0-10.4,4.7-10.4,10.4v60.6h21.2v-0.6V99.8
			l26.4,37.5l0.2,0.4h10.2h0.5c5.8,0,10.4-4.7,10.4-10.4V66.7L288.2,66.7L288.2,66.7z"/>
		<path class="st0" d="M392.3,66.4H341c-5.4,0-9.9,4.2-10.3,9.5h0v6.3h1.6h2.9h18.4v10.4V98v19.5v9.5v10.4h10.4h2.3
			c5.8,0,10.5-4.7,10.5-10.4V98v-5.4V82.2h15.5h8.6h1.6V66.4L392.3,66.4L392.3,66.4z"/>
		<path class="st0" d="M487.3,77.7c0,0,0-0.1-0.1-0.1c-2.9-4.9-9.3-7.9-17-9.5c-7.8-1.6-16.8-1.6-23-1.6c-5.3,0-8.7,0-8.7,0h-4.8
			c-5.8,0-10.5,4.6-10.5,10.4v60.7h10.5h2.1c5.8,0,10.4-4.7,10.4-10.4v-11.6h13.3c0,0-18.6-0.2,0.7,0c19.3,0.3,25.4-8.6,25.4-8.6
			s0,0,0,0c3.4-3.4,5.5-8.2,5.5-13.3v-4.5C491.2,84.9,489.7,80.9,487.3,77.7z M453.2,101.8c-6.1,0-11-4.9-11-11
			c0-6.1,4.9-10.9,11-10.9c6.1,0,11,4.9,11,10.9C464.2,96.9,459.3,101.8,453.2,101.8z"/>
		<path class="st0" d="M462.2,84.3c1.4,1.8,2.2,4.1,2.2,6.6c0,6.1-4.9,11-11,11c-2.7,0-5.1-1-7-2.5c2,2.6,5.2,4.4,8.8,4.4
			c6.1,0,11-4.9,11-11C466.1,89.3,464.6,86.3,462.2,84.3z"/>
		<path class="st0" d="M567.2,121.1h-8.6h-3.1h-23.6V84.9V77V66.5h-10.3h-1.1h-1.1c-5.7,0-10.3,4.6-10.3,10.4v46.7v13.9h8.6h5.2
			h35.7c4.8,0,8.6-3.7,8.6-8.3c0-0.2,0-0.4,0-0.6h0V121.1z"/>
		<path class="st0" d="M610.2,120.4l0-11.1h23.3V92.1h-23.2l0-9.1l38.4-0.1V66h-10.9h-3.7h-36.3c-5.8,0-10.4,4.7-10.4,10.4v1.2v59.5
			h19.1h3.8h4h3.5H641c4.9,0,8.9-4,8.9-8.9v-3.9v-4L610.2,120.4L610.2,120.4z"/>
	</g>
	<path class="st0" d="M80,228.5c3.2-1.6,6-2.4,8.4-2.4c4.8,1.6,6.8,4,6,7.2c-0.8,4-1.2,10.8-1.2,20.4c-0.8,5.6-5.6,7.2-14.4,4.8
		c-2.4-1.6-9.5-2.4-21.5-2.4c-3.2,0.8-4.8,4.4-4.8,10.8c0.8,1.6,2,2.4,3.6,2.4H80c2.4-1.6,5.6-2.4,9.5-2.4c4.8,1.6,6.8,4.8,6,9.6
		c-1.6,4.8-4.7,13.2-9.6,25.1c-4.8,8.8-14.3,13.5-28.7,14.3c-20.7,0-33.9-6.4-39.5-19.1c0-2.4,1.2-2.8,3.6-1.2
		c6.4,6.4,17.1,9.5,32.3,9.5c15.2-1.6,23.5-8.8,25.1-21.5c0.8-4,0-6.4-2.4-7.2c-15.9,0-26.3,1.2-31.1,3.6c-4-0.8-6-3.2-6-7.2
		c1.6-6.4,2.8-13.5,3.6-21.5c1.6-2.4,3.2-3.6,4.8-3.6c6.4,0.8,16.7,1.2,31.1,1.2c3.2-4,3.2-8,0-12c-22.3,0-36.7,1.2-43,3.6
		c-2.4,0-3.6-1.6-3.6-4.8c2.4-5.6,5.6-8.7,9.6-9.6c3.2-0.8,6.4-0.4,9.6,1.2C60,230.5,69.6,230.9,80,228.5z M123.1,227.4
		c0-3.2,1.5-4.8,4.7-4.8c6.4,0,10,3.2,10.8,9.6c-0.8,26.3-0.8,53,0,80.1c0,4.8-4,7.2-11.9,7.2c-2.4-1.6-3.6-4-3.6-7.2
		C124.6,284.3,124.6,256,123.1,227.4z"/>
	<path class="st0" d="M193.8,232c1.6-1.6,3.2-2,4.8-1.2c3.2,1.6,10,2.4,20.3,2.4c4.8-0.8,8-0.8,9.6,0c3.2,2.4,4,4.8,2.4,7.2
		c-1.6,5.6-2.4,12.4-2.4,20.3c-2.4,4-4.4,5.6-6,4.8c-1.6-0.8-3.2-0.8-4.7,0v6c4,0.8,8,1.1,11.9,1.1c3.2,2.4,3.2,4.4,0,6
		c-4,0.8-8,1.2-11.9,1.2v12l15.5-1.2c4-0.8,5.2,0.4,3.6,3.6c-8.8,4-20.3,8.7-34.7,14.3c-13.6,5.6-21.9,6-25.1,1.2
		c-1.6-4.8,0-8,4.8-9.6c3.2-0.8,6-1.6,8.4-2.4v-17.9c-1.6-5.6-0.8-8.4,2.4-8.4c4,0,6.4,2,7.2,6v17.9l7.2-1.2v-29.9
		c-4,0.8-6.8,1.6-8.4,2.4c-4-0.8-6.4-2.8-7.2-5.9c0-6.4-0.4-14-1.2-22.7C189.5,234.8,190.7,232.8,193.8,232z M205.8,257.1h10.8
		c2.4,0,3.6-1.2,3.6-3.6v-8.4c0-3.2-3.2-4.8-9.5-4.8c-5.6,0-8.4,1.6-8.4,4.8v8.4C202.2,256,203.4,257.1,205.8,257.1z M256,224.9
		c4.8,2.4,5.6,6,2.4,10.8c8,0,16.8,0.8,26.3,2.4c4.8-2.4,8.8-2.4,12,0c2.4,1.6,3.6,4,3.6,7.2c-0.8,6.4-2,12.4-3.6,18
		c-2.4,10.4-5.6,17.9-9.6,22.7c-7.2,4.8-12,5.6-14.3,2.4c0.8-0.8,2-2,3.6-3.6c4-5.5,7.2-13.1,9.5-22.7c2.4-8.7,0.8-14.3-4.7-16.7
		c-4.8-1.6-13.6-2-26.3-1.2c-2.4,3.2-5.2,6.8-8.4,10.7c5.6,2.4,12.7,2.8,21.5,1.2c5.6,0,8,2.4,7.2,7.2c-0.8,4-1.6,7.6-2.4,10.8
		c0,0.8,0,1.6,0,2.4c0,4.8-1.2,7.2-3.6,7.2c-3.2,0-5.6-0.4-7.2-1.2c-4.8-0.8-8.3-0.8-10.8,0c0,8,6.8,13.1,20.3,15.5
		c4.8,0.8,10,1.6,15.5,2.4c10.4,0.8,21.9-2,34.7-8.4c-5.6,18.3-13.5,27.1-23.9,26.3c-8-0.8-14.7-2-20.3-3.6
		c-8-2.4-15.6-5.2-22.7-8.3c-4-2.4-7.6-4.8-10.8-7.2c-2.4-3.2-3.2-11.6-2.4-25.1c0-6.4-0.8-10.8-2.4-13.1c-2.4,3.2-4.8,5.2-7.2,5.9
		c-4,1.6-5.6,0.8-4.8-2.4c2.4-2.4,5.2-5.2,8.4-8.3c5.5-8.8,9.1-17.5,10.8-26.3C247.3,224.1,250.4,222.5,256,224.9z M253.7,275.1
		c6.4,0,9.6-0.8,9.6-2.4c1.6-5.5,0.4-8.7-3.6-9.5c-5.6,0-8.4,0.8-8.4,2.4C249.7,271.9,250.4,275.1,253.7,275.1z"/>
	<path class="st0" d="M381.9,250.5v-9.6c-12,0.8-19.5-0.4-22.7-3.6c-2.4-1.6-2-2.8,1.2-3.6c4,0.8,8,1.2,12,1.2
		c4.8-0.8,9.2-1.6,13.1-2.4c4.8-1.6,9.6-3.2,14.4-4.8c1.6,0,3.2,0.4,4.8,1.2c3.2,3.2,4,5.6,2.4,7.2c-4.7,1.6-8.7,2.4-11.9,2.4v10.7
		l14.4,1.2c1.6,0.8,2.4,1.6,2.4,2.4c0.8,2.4-0.4,3.6-3.6,3.6h-13.1v9.6l9.6,6c4,4,4.8,6.8,2.4,8.4l-11.9-4.8v39.5
		c-0.8,3.2-3.6,5.2-8.4,6c-4,0.8-6-0.8-6-4.7c0.8-8,1.2-21.5,1.2-40.7c-5.6,6.4-11.2,12.4-16.8,17.9c-4,3.2-8.4,5.2-13.1,6
		c-4.8,0.8-8.4-0.8-10.8-4.8c5.6-3.2,10.8-6.4,15.5-9.6c12-8.7,20.4-17.5,25.1-26.3c-9.6,0.8-16.8,1.6-21.5,2.4
		c-6.4,1.6-8.8,0-7.2-4.8c1.6-3.2,3.6-5.2,6-6c2.4-1.6,5.6-1.6,9.5,0C372,251.3,376.3,251.3,381.9,250.5z M445.3,276.8
		c0.8-20.7,0.8-34.3,0-40.6c-1.6-5.6-0.8-8.7,2.4-9.6c1.6-0.8,4-0.4,7.2,1.2c3.2,1.6,4.8,4,4.8,7.2c-1.6,13.6-2,27.5-1.2,41.9
		c18.3-0.8,29.1-0.8,32.3,0c-0.8,3.2-3.6,7.2-8.4,12c-2.4,2.4-5.2,2.4-8.4,0c-2.4-0.8-7.2-1.6-14.3-2.4c-0.8,11.2-0.8,20.7,0,28.7
		c0,2.4-2.8,4.4-8.4,6c-4,0-6-1.2-6-3.6c0.8-10.3,0.8-20.7,0-31.1c-12.8,0-23.5,1.2-32.3,3.6c-3.2,0.8-4.8,0-4.8-2.4
		c3.2-8,6.8-11.5,10.8-10.8C426.2,277.6,434.9,277.6,445.3,276.8z M414.2,257.6c2.4-0.8,6,0,10.8,2.4c4,1.6,8.4,2.8,13.2,3.6
		c0.8,2.4-2.4,4-9.6,4.8c-2.4,0-4.8,0-7.2,0c-6.4-0.8-10-2.4-10.8-4.8C410.6,260.4,411.8,258.4,414.2,257.6z M420.2,239.7
		c1.6-2.4,4-2.8,7.2-1.2c3.2,1.6,6.4,3.6,9.6,6l4.8,3.6c2.4,1.6,2.4,2.8,0,3.6c-5.6,0-11.2-0.8-16.8-2.4
		C419.4,246.9,417.8,243.7,420.2,239.7z"/>
	<path class="st0" d="M611.1,287.7c10.4,5.6,19.5,9.2,27.5,10.8c8,1.6,12.7,2.8,14.4,3.6c-0.8,2.4-3.6,6-8.4,10.8
		c-7.2,5.6-13.9,5.2-20.4-1.2c-4-4.8-10.4-10-19.1-15.6c-7.2,4.8-13.9,8.4-20.3,10.8c-7.2,4-13.5,5.6-19.1,4.8
		c-5.6-2.4-8.8-5.2-9.6-8.4c-2.4,4.8-5.6,8.4-9.6,10.8c-7.2,4-14.7,4.8-22.7,2.4c-8.7-4-13.5-8.4-14.3-13.2c-0.8-2.4,0-2.8,2.4-1.2
		c6.4,3.2,13.1,4.4,20.3,3.6c6.4-0.8,10-3.2,10.8-7.2v-21.5c-4.8,1.6-10.4,3.2-16.8,4.8c-4,0.8-6.4-0.4-7.2-3.6c0-4,1.6-6.4,4.8-7.2
		c7.2-0.8,13.6-1.6,19.2-2.4v-14.4c-8-0.8-14,0-17.9,2.4c-4,1.6-6,0.4-6-3.6c2.4-5.6,5.6-8.8,9.5-9.6c3.2,2.4,8,3.6,14.4,3.6
		c0-8-0.4-13.9-1.2-17.9c1.6-3.2,3.6-4.8,6-4.8c5.6,0,8.8,3.2,9.6,9.5c-1.6,4-2,8.4-1.2,13.1h7.2c1.6,0,3.2,0.8,4.8,2.4
		c0.8,2.4-0.8,4-4.8,4.7H556v13.2c3.2-0.8,6.8-1.2,10.8-1.2c2.4,0.7,3.2,2,2.4,3.6c0,1.6-4.4,3.2-13.2,4.8V302
		c0.8-0.8,5.6-1.6,14.3-2.4c9.6-1.6,18.3-4.8,26.3-9.6c-4.8-4-10.8-7.2-17.9-9.6c-5.6-0.8-6.8-3.2-3.6-7.2c1.6-2.4,5.2-2.8,10.8-1.2
		c5.6,3.2,11.2,6.8,16.7,10.7c8-8.7,9.6-13.9,4.8-15.5c-4.8-1.6-10.4-2.4-16.7-2.4c-4,0.8-7.6,2-10.8,3.6c-2.4,0-3.6-1.2-3.6-3.6
		c0.8-1.6,2.4-3.2,4.8-4.8c2.4-1.6,6-2,10.8-1.2v-7.2c-5.6-0.8-11.5,0-17.9,2.4c-3.2,0.8-4.4-0.4-3.6-3.5c1.6-4,4.4-6.4,8.4-7.2
		c2.4,0.8,6.4,1.2,12,1.2v-13.2c0-2.4,1.2-4.4,3.6-6c6.4-0.8,9.9,1.6,10.8,7.2v12h22.7c3.2,0.8,4.8,2.4,4.8,4.8
		c-0.8,2.4-3.2,3.2-7.2,2.4h-20.3v7.2c4-0.8,8,0,12,2.4c3.2,2.4,4.4,6,3.6,10.8C619,276.9,615.9,282.1,611.1,287.7z"/>
</g>
</svg>
