<?xml version="1.0" encoding="utf-8"?>
<!-- Generator: Adobe Illustrator 25.2.1, SVG Export Plug-In . SVG Version: 6.00 Build 0)  -->
<svg version="1.1" id="图层_1" xmlns="http://www.w3.org/2000/svg" xmlns:xlink="http://www.w3.org/1999/xlink" x="0px" y="0px"
	 viewBox="0 0 79.1 70.5" style="enable-background:new 0 0 79.1 70.5;" xml:space="preserve">
<style type="text/css">
	.st0{fill:#F4E829;}
	.st1{fill-rule:evenodd;clip-rule:evenodd;fill:#5FB645;}
	.st2{fill-rule:evenodd;clip-rule:evenodd;fill:#C784B7;}
	.st3{fill-rule:evenodd;clip-rule:evenodd;fill:#EDB035;}
</style>
<g>
	<path class="st0" d="M53.9,16l-7.3,9.8c3.2,2,5.8,5,7.3,8.5l10.6-4.8C62,23.9,59,19.2,53.9,16z"/>
</g>
<g>
	<path class="st0" d="M35.8,22.6l0-11.7C18.4,11.1,4.4,25.2,4.4,42.6c0,5.8,1.5,11.1,4.2,15.8L19,52.2c-1.7-2.9-2.7-6.3-2.7-9.9
		C16.4,31.5,25.1,22.7,35.8,22.6z"/>
</g>
<path class="st1" d="M53.1,37.7c-1.2-4.3-4-8-7.8-10.2c-3.9-2.2-8.4-2.8-12.8-1.7c-4.3,1.2-8,4-10.2,7.8c-2.2,3.9-2.8,8.4-1.7,12.8
	c1.2,4.3,4,8,7.8,10.2c3.9,2.2,8.4,2.8,12.8,1.7c4.3-1.2,8-4,10.2-7.8C53.7,46.6,54.3,42,53.1,37.7z M45.5,47.1
	c-1.3,2.3-3.5,4-6.1,4.7c-2.6,0.7-5.3,0.3-7.6-1c-2.3-1.3-4-3.5-4.6-6.1c-0.7-2.6-0.3-5.3,1-7.6c1.3-2.3,3.5-4,6.1-4.6
	c2.6-0.7,5.3-0.3,7.6,1c2.3,1.3,4,3.5,4.6,6.1C47.2,42,46.8,44.8,45.5,47.1z"/>
<g>
	<path class="st2" d="M70.3,30.3L56,36.8c0,0,0,0.1,0,0.1c0.5,1.8,0.6,3.7,0.5,5.5l16.3,5.4c0.2-1.5,0.3-3,0.3-4.5
		C73.1,38.7,72.1,34.3,70.3,30.3z"/>
	<path class="st2" d="M49.2,40l0.5,0.2c0-0.1,0-0.3,0-0.4L49.2,40z"/>
</g>
<path class="st1" d="M58.2,60.1C58.2,60.1,58.2,60.1,58.2,60.1c-1-0.7-2-1.5-3-2.2c-1-0.8-1.9-1.5-2.8-2.3c-0.7-0.6-1.3-1.2-1.9-1.8
	c-0.8,1.1-1.8,2-2.9,2.8c0.6,0.7,1.2,1.4,1.8,2.1c0.8,0.9,1.5,1.9,2.3,2.9c0.7,1,1.4,2,2.1,3.1c0,0,0,0,0,0c0.6,0.9,1.5,1.5,2.3,1.6
	c0.4,0.1,0.9,0,1.4-0.2c0.5-0.2,0.9-0.5,1.3-0.9c0.4-0.4,0.7-0.8,0.8-1.3c0.2-0.5,0.2-0.9,0.2-1.4C59.7,61.6,59.1,60.7,58.2,60.1z"
	/>
<path class="st3" d="M44.4,24.2L52.4,11c-3.7-2.6-8.9-3.8-13.8-4.3l-0.5,15.7C40.3,22.6,42.4,23.2,44.4,24.2z"/>
</svg>
