<?xml version="1.0" encoding="utf-8"?>
<!-- Generator: Adobe Illustrator 25.2.1, SVG Export Plug-In . SVG Version: 6.00 Build 0)  -->
<svg version="1.1" id="图层_1" xmlns="http://www.w3.org/2000/svg" xmlns:xlink="http://www.w3.org/1999/xlink" x="0px" y="0px"
	 viewBox="0 0 199.6 35.3" style="enable-background:new 0 0 199.6 35.3;" xml:space="preserve">
<style type="text/css">
	.st0{fill:#ED891B;}
</style>
<path class="st0" d="M6.1,29.1V4.2h14.2c2.4,0,4.3,0.6,5.7,1.8c1.4,1.2,2.1,2.9,2.1,5.1c0,1.8-0.5,3.3-1.6,4.6
	c-1.1,1.3-2.5,2.3-4.3,2.6l6.2,10.7h-4.2l-6.2-10.6H10v10.6H6.1z M10,15h10.2c1.6,0,4-1.4,4-3.8c0-2.4-2.4-3.4-3.8-3.4H10V15z"/>
<path class="st0" d="M28.8,29.1l9.8-19.2h1.9l9.9,19.2h-4l-2.5-4.4h-8.6l-2.5,4.4H28.8z M36.3,21.6h6.5l-3.2-6.8L36.3,21.6z"/>
<path class="st0" d="M53.2,29.1V9.9h3.6l9.4,13v-13H70v19.2h-3.6L57,17.1v11.9H53.2z"/>
<path class="st0" d="M155.6,29.1V9.9h3.6l9.4,13v-13h3.7v19.2h-3.6l-9.4-11.9v11.9H155.6z"/>
<path class="st0" d="M87.6,22.1v-3.3h6.8v5.8c-1,1.6-2.2,2.9-3.7,3.8c-1.5,0.9-3.3,1.3-5.4,1.3c-3.1,0-5.5-1-7.5-2.9
	c-1.9-1.9-2.9-4.3-2.9-7.3c0-2.9,1-5.4,2.9-7.3c2-1.9,4.4-2.9,7.5-2.9c1.9,0,3.6,0.4,5.1,1.1c1.5,0.8,2.7,1.9,3.7,3.4l-2.5,2.3
	c-0.7-1.1-1.6-2-2.8-2.6c-1.2-0.6-2.3-0.8-3.7-0.8c-2.3,0-3.4,0.6-4.9,1.9c-1.4,1.4-1.8,3.2-1.8,4.7c0.1,1.9,0.5,2.9,1.4,4.1
	c1.2,1.6,3.2,2.8,5.4,2.8c1.4,0,3.4-0.1,5.5-2.7v-1.6H87.6z"/>
<g>
	<path class="st0" d="M135.9,29.7c-3.7,0-6.8-1.2-9.2-3.7c-2.4-2.5-3.6-5.6-3.6-9.3c0-3.8,1.2-6.9,3.6-9.3c2.4-2.5,5.5-3.7,9.2-3.7
		c3.7,0,6.8,1.2,9.2,3.7c2.4,2.5,3.7,5.6,3.7,9.3c0,3.8-1.2,6.9-3.7,9.3C142.7,28.5,139.6,29.7,135.9,29.7z M135.9,26.8
		c2.8,0,5.1-1,6.9-2.9c1.8-1.9,2.7-4.3,2.7-7.2c0-2.9-0.9-5.4-2.7-7.3c-1.8-1.9-4.1-2.9-6.9-2.9c-2.8,0-5.1,1-6.9,2.9
		c-1.8,1.9-2.7,4.3-2.7,7.3s0.9,5.3,2.7,7.2C130.8,25.9,133.1,26.8,135.9,26.8z"/>
	<path class="st0" d="M136.3,10.5h-0.8c-0.3,0-0.5-0.2-0.5-0.5V1.8c0-0.3,0.2-0.5,0.5-0.5h0.8c0.3,0,0.5,0.2,0.5,0.5v8.2
		C136.9,10.2,136.6,10.5,136.3,10.5z"/>
	<path class="st0" d="M136.3,32.8h-0.8c-0.3,0-0.5-0.2-0.5-0.5v-8.2c0-0.3,0.2-0.5,0.5-0.5h0.8c0.3,0,0.5,0.2,0.5,0.5v8.2
		C136.9,32.6,136.6,32.8,136.3,32.8z"/>
	<g>
		<path class="st0" d="M142.4,16.8v-0.8c0-0.3,0.2-0.5,0.5-0.5h8.2c0.3,0,0.5,0.2,0.5,0.5v0.8c0,0.3-0.2,0.5-0.5,0.5h-8.2
			C142.6,17.4,142.4,17.1,142.4,16.8z"/>
		<path class="st0" d="M120,16.8v-0.8c0-0.3,0.2-0.5,0.5-0.5h8.2c0.3,0,0.5,0.2,0.5,0.5v0.8c0,0.3-0.2,0.5-0.5,0.5h-8.2
			C120.2,17.4,120,17.1,120,16.8z"/>
	</g>
</g>
<path class="st0" d="M99.3,29.1V9.9h3.8l0,15.9h9.9c0,0,1.8,0.2,2.9,1c1.1,0.8,1.7,2.3,1.7,2.3H99.3z"/>
<path class="st0" d="M113,20.5h-8.3v-3.5h3.2c0,0,2.1,0,3.3,1C112.4,19.2,113,20.5,113,20.5z"/>
<path class="st0" d="M115.8,13.3h-11.1V9.9h6c0,0,2.1,0,3.3,1C115.2,12,115.8,13.3,115.8,13.3z"/>
<path class="st0" d="M176.2,29.1V9.9h3.8l0,15.9h9.9c0,0,1.8,0.2,2.9,1c1.1,0.8,1.7,2.3,1.7,2.3H176.2z"/>
<path class="st0" d="M189.9,20.5h-8.3v-3.5h3.2c0,0,2.1,0,3.3,1C189.4,19.2,189.9,20.5,189.9,20.5z"/>
<path class="st0" d="M192.7,13.3h-11.1V9.9h6c0,0,2.1,0,3.3,1C192.2,12,192.7,13.3,192.7,13.3z"/>
</svg>
