<?xml version="1.0" encoding="utf-8"?>
<!-- Generator: Adobe Illustrator 25.2.1, SVG Export Plug-In . SVG Version: 6.00 Build 0)  -->
<svg version="1.1" id="图层_1" xmlns="http://www.w3.org/2000/svg" xmlns:xlink="http://www.w3.org/1999/xlink" x="0px" y="0px"
	 viewBox="0 0 79 78.2" style="enable-background:new 0 0 79 78.2;" xml:space="preserve">
<style type="text/css">
	.st0{fill:#1587AF;}
	.st1{fill:#FFFFFF;}
	.st2{fill:url(#SVGID_1_);}
	.st3{fill:url(#SVGID_2_);}
	.st4{fill:url(#SVGID_3_);}
	.st5{fill:url(#SVGID_4_);}
	.st6{fill:url(#SVGID_5_);}
	.st7{fill:url(#SVGID_6_);}
	.st8{fill:url(#SVGID_7_);}
</style>
<g>
	<path class="st0" d="M69.1,40.2c0,16.5-13.4,29.9-29.9,29.9c-16.5,0-29.9-13.4-29.9-29.9c0-16.5,13.4-29.9,29.9-29.9
		C55.7,10.3,69.1,23.7,69.1,40.2z"/>
	<path class="st1" d="M69.1,35.8c0,16.5-13.4,29.9-29.9,29.9c-16.5,0-29.9-13.4-29.9-29.9c0-16.5,13.4-29.9,29.9-29.9
		C55.7,5.9,69.1,19.3,69.1,35.8z"/>
	<g>
		<radialGradient id="SVGID_1_" cx="37.7704" cy="23.2321" r="35.7356" gradientUnits="userSpaceOnUse">
			<stop  offset="4.975120e-03" style="stop-color:#FFFFFF"/>
			<stop  offset="0.3134" style="stop-color:#E1EBB1"/>
			<stop  offset="0.5871" style="stop-color:#B4CC38"/>
			<stop  offset="0.7114" style="stop-color:#87BD43"/>
			<stop  offset="1" style="stop-color:#046537"/>
		</radialGradient>
		<path class="st2" d="M24.8,32.9h-3c-1.3,0-2.4,1.1-2.4,2.4v19.5c0,1.3,1.1,2.4,2.4,2.4h3c1.3,0,2.4-1.1,2.4-2.4V35.3
			C27.3,34,26.2,32.9,24.8,32.9z"/>
		<radialGradient id="SVGID_2_" cx="37.7705" cy="23.2331" r="35.7346" gradientUnits="userSpaceOnUse">
			<stop  offset="4.975120e-03" style="stop-color:#FFFFFF"/>
			<stop  offset="0.3134" style="stop-color:#E1EBB1"/>
			<stop  offset="0.5871" style="stop-color:#B4CC38"/>
			<stop  offset="0.7114" style="stop-color:#87BD43"/>
			<stop  offset="1" style="stop-color:#046537"/>
		</radialGradient>
		<path class="st3" d="M34.7,26.1c0,0-5.4,1.1-5.4,2.4v26.3c0,1.3,1.1,2.4,2.4,2.4h3c1.3,0,2.4-1.1,2.4-2.4V28.5
			C37.1,27.2,36,26.1,34.7,26.1z"/>
		<radialGradient id="SVGID_3_" cx="37.7705" cy="23.2331" r="35.7346" gradientUnits="userSpaceOnUse">
			<stop  offset="4.975120e-03" style="stop-color:#FFFFFF"/>
			<stop  offset="0.3134" style="stop-color:#E1EBB1"/>
			<stop  offset="0.5871" style="stop-color:#B4CC38"/>
			<stop  offset="0.7114" style="stop-color:#87BD43"/>
			<stop  offset="1" style="stop-color:#046537"/>
		</radialGradient>
		<path class="st4" d="M44.5,18.2h-3c-1.3,0-2.4,1.1-2.4,2.4v34.2c0,1.3,1.1,2.4,2.4,2.4h3c1.3,0,2.4-1.1,2.4-2.4V20.6
			C46.9,19.3,45.8,18.2,44.5,18.2z"/>
		<radialGradient id="SVGID_4_" cx="37.7703" cy="23.2321" r="35.7357" gradientUnits="userSpaceOnUse">
			<stop  offset="4.975120e-03" style="stop-color:#FFFFFF"/>
			<stop  offset="0.3134" style="stop-color:#E1EBB1"/>
			<stop  offset="0.5871" style="stop-color:#B4CC38"/>
			<stop  offset="0.7114" style="stop-color:#87BD43"/>
			<stop  offset="1" style="stop-color:#046537"/>
		</radialGradient>
		<path class="st5" d="M54.3,24.1h-3c-1.3,0-2.4,1.1-2.4,2.4v28.3c0,1.3,1.1,2.4,2.4,2.4h3c1.3,0,2.4-1.1,2.4-2.4V26.5
			C56.7,25.2,55.6,24.1,54.3,24.1z"/>
	</g>
	<path class="st1" d="M39.2,58C26,58,15.3,47.3,15.3,34.1C15.3,21,26,10.2,39.2,10.2c13.2,0,23.9,10.7,23.9,23.9
		C63.1,47.3,52.4,58,39.2,58z M39.2,13.1c-11.6,0-21,9.4-21,21c0,11.6,9.4,21,21,21c11.6,0,21-9.4,21-21
		C60.2,22.5,50.8,13.1,39.2,13.1z"/>
	
		<radialGradient id="SVGID_5_" cx="-357.1986" cy="437.5251" r="0.4314" gradientTransform="matrix(78.4263 0 0 -78.4263 28055.1055 34353.1758)" gradientUnits="userSpaceOnUse">
		<stop  offset="0" style="stop-color:#FFFFFF"/>
		<stop  offset="0.315" style="stop-color:#B4DFEB"/>
		<stop  offset="0.6648" style="stop-color:#3AA9D9"/>
		<stop  offset="1" style="stop-color:#336392"/>
	</radialGradient>
	<path class="st6" d="M72.2,67l-11-12.6c5-5.3,8-12.5,8-20.3c0-16.5-13.4-29.9-29.9-29.9C22.7,4.2,9.3,17.6,9.3,34.1
		s13.4,29.9,29.9,29.9c5.1,0,9.9-1.3,14.1-3.6l11.4,13c1,1.1,2.3,1.7,3.7,1.7c1.2,0,2.3-0.4,3.2-1.2C73.8,72.2,74,69.1,72.2,67z
		 M16.8,34.1c0-12.4,10-22.4,22.4-22.4c12.4,0,22.4,10,22.4,22.4c0,12.4-10,22.4-22.4,22.4C26.8,56.6,16.8,46.5,16.8,34.1z"/>
	
		<radialGradient id="SVGID_6_" cx="-351.9149" cy="446.8064" r="1.0325" gradientTransform="matrix(13 37.3335 37.3335 -13 -12071.1367 18970.2285)" gradientUnits="userSpaceOnUse">
		<stop  offset="0" style="stop-color:#FFFFFF"/>
		<stop  offset="0.315" style="stop-color:#B4DFEB"/>
		<stop  offset="0.6648" style="stop-color:#3AA9D9"/>
		<stop  offset="1" style="stop-color:#336392"/>
	</radialGradient>
	<path class="st7" d="M13,48.6c2.9-0.1,5.7-0.4,8.4-0.8c-2.9-3.8-4.6-8.5-4.6-13.7c0-12.4,10-22.4,22.4-22.4c9.4,0,17.4,5.8,20.8,14
		c1.7-2.9,2.8-6,3.4-9.2C57.9,9,49.1,4.2,39.2,4.2C22.7,4.2,9.3,17.6,9.3,34.1C9.3,39.4,10.6,44.3,13,48.6z"/>
	
		<radialGradient id="SVGID_7_" cx="-354.7802" cy="442.3118" r="0.5774" gradientTransform="matrix(40.2503 47.9435 47.9435 -40.2503 -6873.2993 34829.543)" gradientUnits="userSpaceOnUse">
		<stop  offset="0" style="stop-color:#FFFFFF"/>
		<stop  offset="0.315" style="stop-color:#B4DFEB"/>
		<stop  offset="0.6648" style="stop-color:#3AA9D9"/>
		<stop  offset="1" style="stop-color:#336392"/>
	</radialGradient>
	<path class="st8" d="M59.3,15.8c8.4,10,9.3,23.8,3.2,34.6c7.7-10.4,7.6-25-1.1-35.3C55.1,7.6,45.9,4.2,36.9,5
		C45.3,5.3,53.5,8.9,59.3,15.8z"/>
</g>
</svg>
