<?xml version="1.0" encoding="utf-8"?>
<!-- Generator: Adobe Illustrator 25.2.1, SVG Export Plug-In . SVG Version: 6.00 Build 0)  -->
<svg version="1.1" id="图层_1" xmlns="http://www.w3.org/2000/svg" xmlns:xlink="http://www.w3.org/1999/xlink" x="0px" y="0px"
	 viewBox="0 0 131.2 38.1" style="enable-background:new 0 0 131.2 38.1;" xml:space="preserve">
<style type="text/css">
	.st0{fill:#ED891B;}
	.st1{fill:url(#SVGID_1_);}
	.st2{fill:url(#SVGID_2_);}
	.st3{fill:url(#SVGID_3_);}
	.st4{fill:url(#SVGID_4_);}
	.st5{fill:url(#SVGID_5_);}
	.st6{fill:url(#SVGID_6_);}
	.st7{fill:url(#SVGID_7_);}
	.st8{fill:url(#SVGID_8_);}
	.st9{fill:url(#SVGID_9_);}
	.st10{fill:url(#SVGID_10_);}
	.st11{fill:url(#SVGID_11_);}
	.st12{fill:url(#SVGID_12_);}
	.st13{fill:url(#SVGID_13_);}
	.st14{fill:url(#SVGID_14_);}
	.st15{fill:url(#SVGID_15_);}
	.st16{fill:url(#SVGID_16_);}
	.st17{fill:url(#SVGID_17_);}
	.st18{fill:url(#SVGID_18_);}
	.st19{fill:url(#SVGID_19_);}
	.st20{fill:url(#SVGID_20_);}
	.st21{fill:#1881B1;}
</style>
<path class="st0" d="M8.1,89.4V64.6h14.2c2.4,0,4.3,0.6,5.7,1.8c1.4,1.2,2.1,2.9,2.1,5.1c0,1.8-0.5,3.3-1.6,4.6
	c-1.1,1.3-2.5,2.3-4.3,2.6l6.2,10.7h-4.2l-6.2-10.6H12v10.6H8.1z M12,75.4h10.2c1.6,0,4-1.4,4-3.8c0-2.4-2.4-3.4-3.8-3.4H12V75.4z"
	/>
<path class="st0" d="M30.8,89.4l9.8-19.2h1.9l9.9,19.2h-4L45.9,85h-8.6l-2.5,4.4H30.8z M38.3,82h6.5l-3.2-6.8L38.3,82z"/>
<path class="st0" d="M55.2,89.4V70.2h3.6l9.4,13v-13H72v19.2h-3.6L59,77.5v11.9H55.2z"/>
<path class="st0" d="M157.6,89.4V70.2h3.6l9.4,13v-13h3.7v19.2h-3.6l-9.4-11.9v11.9H157.6z"/>
<path class="st0" d="M89.5,82.5v-3.3h6.8V85c-1,1.6-2.2,2.9-3.7,3.8c-1.5,0.9-3.3,1.3-5.4,1.3c-3.1,0-5.5-1-7.5-2.9
	c-1.9-1.9-2.9-4.3-2.9-7.3c0-2.9,1-5.4,2.9-7.3c2-1.9,4.4-2.9,7.5-2.9c1.9,0,3.6,0.4,5.1,1.1c1.5,0.8,2.7,1.9,3.7,3.4l-2.5,2.3
	c-0.7-1.1-1.6-2-2.8-2.6c-1.2-0.6-2.3-0.8-3.7-0.8c-2.3,0-3.4,0.6-4.9,1.9c-1.4,1.4-1.8,3.2-1.8,4.7c0.1,1.9,0.5,2.9,1.4,4.1
	c1.2,1.6,3.2,2.8,5.4,2.8c1.4,0,3.4-0.1,5.5-2.7v-1.6H89.5z"/>
<g>
	<path class="st0" d="M137.9,90.1c-3.7,0-6.8-1.2-9.2-3.7c-2.4-2.5-3.6-5.6-3.6-9.3c0-3.8,1.2-6.9,3.6-9.3c2.4-2.5,5.5-3.7,9.2-3.7
		c3.7,0,6.8,1.2,9.2,3.7c2.4,2.5,3.7,5.6,3.7,9.3c0,3.8-1.2,6.9-3.7,9.3C144.7,88.8,141.6,90.1,137.9,90.1z M137.9,87.2
		c2.8,0,5.1-1,6.9-2.9c1.8-1.9,2.7-4.3,2.7-7.2c0-2.9-0.9-5.4-2.7-7.3c-1.8-1.9-4.1-2.9-6.9-2.9c-2.8,0-5.1,1-6.9,2.9
		c-1.8,1.9-2.7,4.3-2.7,7.3s0.9,5.3,2.7,7.2C132.8,86.2,135.1,87.2,137.9,87.2z"/>
	<path class="st0" d="M138.3,70.8h-0.8c-0.3,0-0.5-0.2-0.5-0.5v-8.2c0-0.3,0.2-0.5,0.5-0.5h0.8c0.3,0,0.5,0.2,0.5,0.5v8.2
		C138.9,70.6,138.6,70.8,138.3,70.8z"/>
	<path class="st0" d="M138.3,93.2h-0.8c-0.3,0-0.5-0.2-0.5-0.5v-8.2c0-0.3,0.2-0.5,0.5-0.5h0.8c0.3,0,0.5,0.2,0.5,0.5v8.2
		C138.9,93,138.6,93.2,138.3,93.2z"/>
	<g>
		<path class="st0" d="M144.4,77.2v-0.8c0-0.3,0.2-0.5,0.5-0.5h8.2c0.3,0,0.5,0.2,0.5,0.5v0.8c0,0.3-0.2,0.5-0.5,0.5h-8.2
			C144.6,77.7,144.4,77.5,144.4,77.2z"/>
		<path class="st0" d="M122,77.2v-0.8c0-0.3,0.2-0.5,0.5-0.5h8.2c0.3,0,0.5,0.2,0.5,0.5v0.8c0,0.3-0.2,0.5-0.5,0.5h-8.2
			C122.2,77.7,122,77.5,122,77.2z"/>
	</g>
</g>
<path class="st0" d="M101.3,89.4V70.2h3.8l0,15.9h9.9c0,0,1.8,0.2,2.9,1c1.1,0.8,1.7,2.3,1.7,2.3H101.3z"/>
<path class="st0" d="M115,80.9h-8.3v-3.5h3.2c0,0,2.1,0,3.3,1C114.4,79.5,115,80.9,115,80.9z"/>
<path class="st0" d="M117.8,73.7h-11.1v-3.5h6c0,0,2.1,0,3.3,1C117.2,72.3,117.8,73.7,117.8,73.7z"/>
<path class="st0" d="M178.2,89.4V70.2h3.8l0,15.9h9.9c0,0,1.8,0.2,2.9,1c1.1,0.8,1.7,2.3,1.7,2.3H178.2z"/>
<path class="st0" d="M191.9,80.9h-8.3v-3.5h3.2c0,0,2.1,0,3.3,1C191.4,79.5,191.9,80.9,191.9,80.9z"/>
<path class="st0" d="M194.7,73.7h-11.1v-3.5h6c0,0,2.1,0,3.3,1C194.2,72.3,194.7,73.7,194.7,73.7z"/>
<text transform="matrix(1 0 0 1 -52.0749 -60.5288)" class="st0" style="font-family:'BrickLED-7'; font-size:18.3835px;">VSONE</text>
<text transform="matrix(1 0 0 1 227.6648 30.0444)" class="st0" style="font-family:'BrickLED-7'; font-size:18.3835px;">VSONE</text>
<text transform="matrix(1 0 0 1 130.9904 -24.6689)" class="st0" style="font-family:'PowerPixel-7'; font-size:43.2751px;">VSONE</text>
<g>
	<linearGradient id="SVGID_1_" gradientUnits="userSpaceOnUse" x1="226.4141" y1="-87.0353" x2="248.3946" y2="-87.0353">
		<stop  offset="3.258846e-02" style="stop-color:#AB4695"/>
		<stop  offset="1" style="stop-color:#F5C844"/>
	</linearGradient>
	<path class="st1" d="M226.4-98h22v3.1h-12.6v6.3h12.6V-76h-22v-3.1H239v-6.3h-12.6V-98z"/>
	<linearGradient id="SVGID_2_" gradientUnits="userSpaceOnUse" x1="251.5342" y1="-87.0353" x2="273.5147" y2="-87.0353">
		<stop  offset="3.258846e-02" style="stop-color:#AB4695"/>
		<stop  offset="1" style="stop-color:#F5C844"/>
	</linearGradient>
	<path class="st2" d="M251.5-98h22v3.1H261v6.3h12.6V-76h-22v-3.1h12.6v-6.3h-12.6V-98z"/>
	<linearGradient id="SVGID_3_" gradientUnits="userSpaceOnUse" x1="276.6544" y1="-87.0353" x2="298.6348" y2="-87.0353">
		<stop  offset="3.258846e-02" style="stop-color:#AB4695"/>
		<stop  offset="1" style="stop-color:#F5C844"/>
	</linearGradient>
	<path class="st3" d="M276.7-98h22v22h-22V-98z M279.8-79.2h9.4v-15.7h-9.4V-79.2z"/>
	<linearGradient id="SVGID_4_" gradientUnits="userSpaceOnUse" x1="301.7745" y1="-87.0353" x2="323.7549" y2="-87.0353">
		<stop  offset="3.258846e-02" style="stop-color:#AB4695"/>
		<stop  offset="1" style="stop-color:#F5C844"/>
	</linearGradient>
	<path class="st4" d="M301.8-98h3.1v6.3h3.1v3.1h3.1v3.1h3.1V-98h9.4v22h-9.4v-6.3h-3.1v-3.1h-3.1v-3.1h-3.1V-76h-3.1V-98z"/>
	<linearGradient id="SVGID_5_" gradientUnits="userSpaceOnUse" x1="326.8946" y1="-87.0353" x2="348.8751" y2="-87.0353">
		<stop  offset="3.258846e-02" style="stop-color:#AB4695"/>
		<stop  offset="1" style="stop-color:#F5C844"/>
	</linearGradient>
	<path class="st5" d="M326.9-98h22v3.1h-12.6v6.3h12.6v3.1h-12.6v6.3h12.6v3.1h-22V-98z"/>
</g>
<text transform="matrix(1 0 0 1 213.1357 81.9968)" class="st0" style="font-family:'SmallestPixel-7'; font-size:55.3119px;">VSONE</text>
<text transform="matrix(1 0 0 1 152.1415 147.8853)" class="st0" style="font-family:'BoldLEDBoard-7'; font-size:36.9383px;">VSONE</text>
<g>
	<linearGradient id="SVGID_6_" gradientUnits="userSpaceOnUse" x1="85.7212" y1="-114.6837" x2="107.3994" y2="-114.6837">
		<stop  offset="3.258846e-02" style="stop-color:#ED891B"/>
		<stop  offset="1" style="stop-color:#00A9C8"/>
	</linearGradient>
	<path class="st6" d="M85.7-128.1h3.8v2.8h-3.8V-128.1z M85.7-124.4h3.8v7.4h-3.8V-124.4z M85.7-116.1h3.8v2.8h-3.8V-116.1z
		 M85.7-112.4h3.8v3.7h-3.8V-112.4z M89.5-107.8h3.8v2.8h-3.8V-107.8z M94.6-104.1h3.8v2.8h-3.8V-104.1z M99.7-107.8h3.8v2.8h-3.8
		V-107.8z M103.6-128.1h3.8v2.8h-3.8V-128.1z M103.6-124.4h3.8v7.4h-3.8V-124.4z M103.6-116.1h3.8v2.8h-3.8V-116.1z M103.6-112.4
		h3.8v3.7h-3.8V-112.4z"/>
	<linearGradient id="SVGID_7_" gradientUnits="userSpaceOnUse" x1="111.2251" y1="-114.6837" x2="132.9033" y2="-114.6837">
		<stop  offset="3.258846e-02" style="stop-color:#ED891B"/>
		<stop  offset="1" style="stop-color:#00A9C8"/>
	</linearGradient>
	<path class="st7" d="M111.2-124.4h3.8v7.4h-3.8V-124.4z M111.2-104.1h3.8v2.8h-3.8V-104.1z M116.3-128.1h11.5v2.8h-11.5V-128.1z
		 M116.3-116.1h11.5v2.8h-11.5V-116.1z M116.3-104.1h11.5v2.8h-11.5V-104.1z M129.1-128.1h3.8v2.8h-3.8V-128.1z M129.1-112.4h3.8
		v7.4h-3.8V-112.4z"/>
	<linearGradient id="SVGID_8_" gradientUnits="userSpaceOnUse" x1="136.7285" y1="-114.6837" x2="158.4067" y2="-114.6837">
		<stop  offset="3.258846e-02" style="stop-color:#ED891B"/>
		<stop  offset="1" style="stop-color:#00A9C8"/>
	</linearGradient>
	<path class="st8" d="M136.7-124.4h3.8v7.4h-3.8V-124.4z M136.7-116.1h3.8v2.8h-3.8V-116.1z M136.7-112.4h3.8v7.4h-3.8V-112.4z
		 M141.8-128.1h11.5v2.8h-11.5V-128.1z M141.8-104.1h11.5v2.8h-11.5V-104.1z M154.6-124.4h3.8v7.4h-3.8V-124.4z M154.6-116.1h3.8
		v2.8h-3.8V-116.1z M154.6-112.4h3.8v7.4h-3.8V-112.4z"/>
	<linearGradient id="SVGID_9_" gradientUnits="userSpaceOnUse" x1="162.2324" y1="-114.6837" x2="183.9106" y2="-114.6837">
		<stop  offset="3.258846e-02" style="stop-color:#ED891B"/>
		<stop  offset="1" style="stop-color:#00A9C8"/>
	</linearGradient>
	<path class="st9" d="M162.2-128.1h3.8v2.8h-3.8V-128.1z M162.2-124.4h3.8v7.4h-3.8V-124.4z M162.2-116.1h3.8v2.8h-3.8V-116.1z
		 M162.2-112.4h3.8v7.4h-3.8V-112.4z M162.2-104.1h3.8v2.8h-3.8V-104.1z M167.3-119.8h3.8v2.8h-3.8V-119.8z M171.2-116.1h3.8v2.8
		h-3.8V-116.1z M175-112.4h3.8v2.8H175V-112.4z M180.1-128.1h3.8v2.8h-3.8V-128.1z M180.1-124.4h3.8v7.4h-3.8V-124.4z M180.1-116.1
		h3.8v2.8h-3.8V-116.1z M180.1-112.4h3.8v7.4h-3.8V-112.4z M180.1-104.1h3.8v2.8h-3.8V-104.1z"/>
	<linearGradient id="SVGID_10_" gradientUnits="userSpaceOnUse" x1="187.7358" y1="-114.6837" x2="209.414" y2="-114.6837">
		<stop  offset="3.258846e-02" style="stop-color:#ED891B"/>
		<stop  offset="1" style="stop-color:#00A9C8"/>
	</linearGradient>
	<path class="st10" d="M187.7-128.1h3.8v2.8h-3.8V-128.1z M187.7-124.4h3.8v7.4h-3.8V-124.4z M187.7-116.1h3.8v2.8h-3.8V-116.1z
		 M187.7-112.4h3.8v7.4h-3.8V-112.4z M187.7-104.1h3.8v2.8h-3.8V-104.1z M192.8-128.1h11.5v2.8h-11.5V-128.1z M192.8-116.1h11.5v2.8
		h-11.5V-116.1z M192.8-104.1h11.5v2.8h-11.5V-104.1z M205.6-128.1h3.8v2.8h-3.8V-128.1z M205.6-104.1h3.8v2.8h-3.8V-104.1z"/>
</g>
<g>
	<linearGradient id="SVGID_11_" gradientUnits="userSpaceOnUse" x1="-128.7195" y1="56.3054" x2="-107.0413" y2="56.3054">
		<stop  offset="3.258846e-02" style="stop-color:#ED891B"/>
		<stop  offset="1" style="stop-color:#00A9C8"/>
	</linearGradient>
	<path class="st11" d="M-128.7,42.9h3.8v2.8h-3.8V42.9z M-128.7,46.6h3.8V54h-3.8V46.6z M-128.7,54.9h3.8v2.8h-3.8V54.9z
		 M-128.7,58.6h3.8v3.7h-3.8V58.6z M-124.9,63.2h3.8V66h-3.8V63.2z M-119.8,66.9h3.8v2.8h-3.8V66.9z M-114.7,63.2h3.8V66h-3.8V63.2z
		 M-110.9,42.9h3.8v2.8h-3.8V42.9z M-110.9,46.6h3.8V54h-3.8V46.6z M-110.9,54.9h3.8v2.8h-3.8V54.9z M-110.9,58.6h3.8v3.7h-3.8V58.6
		z"/>
	<linearGradient id="SVGID_12_" gradientUnits="userSpaceOnUse" x1="-103.2156" y1="56.3054" x2="-81.5374" y2="56.3054">
		<stop  offset="3.258846e-02" style="stop-color:#ED891B"/>
		<stop  offset="1" style="stop-color:#00A9C8"/>
	</linearGradient>
	<path class="st12" d="M-103.2,46.6h3.8V54h-3.8V46.6z M-103.2,66.9h3.8v2.8h-3.8V66.9z M-98.1,42.9h11.5v2.8h-11.5V42.9z
		 M-98.1,54.9h11.5v2.8h-11.5V54.9z M-98.1,66.9h11.5v2.8h-11.5V66.9z M-85.4,42.9h3.8v2.8h-3.8V42.9z M-85.4,58.6h3.8V66h-3.8V58.6
		z"/>
	<linearGradient id="SVGID_13_" gradientUnits="userSpaceOnUse" x1="-77.7122" y1="56.3054" x2="-56.034" y2="56.3054">
		<stop  offset="3.258846e-02" style="stop-color:#ED891B"/>
		<stop  offset="1" style="stop-color:#00A9C8"/>
	</linearGradient>
	<path class="st13" d="M-77.7,46.6h3.8V54h-3.8V46.6z M-77.7,54.9h3.8v2.8h-3.8V54.9z M-77.7,58.6h3.8V66h-3.8V58.6z M-72.6,42.9
		h11.5v2.8h-11.5V42.9z M-72.6,66.9h11.5v2.8h-11.5V66.9z M-59.9,46.6h3.8V54h-3.8V46.6z M-59.9,54.9h3.8v2.8h-3.8V54.9z
		 M-59.9,58.6h3.8V66h-3.8V58.6z"/>
	<linearGradient id="SVGID_14_" gradientUnits="userSpaceOnUse" x1="-52.2083" y1="56.3054" x2="-30.5301" y2="56.3054">
		<stop  offset="3.258846e-02" style="stop-color:#ED891B"/>
		<stop  offset="1" style="stop-color:#00A9C8"/>
	</linearGradient>
	<path class="st14" d="M-52.2,42.9h3.8v2.8h-3.8V42.9z M-52.2,46.6h3.8V54h-3.8V46.6z M-52.2,54.9h3.8v2.8h-3.8V54.9z M-52.2,58.6
		h3.8V66h-3.8V58.6z M-52.2,66.9h3.8v2.8h-3.8V66.9z M-47.1,51.2h3.8V54h-3.8V51.2z M-43.3,54.9h3.8v2.8h-3.8V54.9z M-39.5,58.6h3.8
		v2.8h-3.8V58.6z M-34.4,42.9h3.8v2.8h-3.8V42.9z M-34.4,46.6h3.8V54h-3.8V46.6z M-34.4,54.9h3.8v2.8h-3.8V54.9z M-34.4,58.6h3.8V66
		h-3.8V58.6z M-34.4,66.9h3.8v2.8h-3.8V66.9z"/>
	<linearGradient id="SVGID_15_" gradientUnits="userSpaceOnUse" x1="-26.7049" y1="56.3054" x2="-5.0267" y2="56.3054">
		<stop  offset="3.258846e-02" style="stop-color:#ED891B"/>
		<stop  offset="1" style="stop-color:#00A9C8"/>
	</linearGradient>
	<path class="st15" d="M-26.7,42.9h3.8v2.8h-3.8V42.9z M-26.7,46.6h3.8V54h-3.8V46.6z M-26.7,54.9h3.8v2.8h-3.8V54.9z M-26.7,58.6
		h3.8V66h-3.8V58.6z M-26.7,66.9h3.8v2.8h-3.8V66.9z M-21.6,42.9h11.5v2.8h-11.5V42.9z M-21.6,54.9h11.5v2.8h-11.5V54.9z
		 M-21.6,66.9h11.5v2.8h-11.5V66.9z M-8.9,42.9H-5v2.8h-3.8V42.9z M-8.9,66.9H-5v2.8h-3.8V66.9z"/>
</g>
<text transform="matrix(1.3809 0 0 1 -53.3106 -22.7136)" class="st0" style="font-family:'DashDotLCD-7'; font-size:36.9383px;">VSONE</text>
<g>
	<linearGradient id="SVGID_16_" gradientUnits="userSpaceOnUse" x1="3.7716" y1="19.0318" x2="25.4498" y2="19.0318">
		<stop  offset="3.258846e-02" style="stop-color:#AB4695"/>
		<stop  offset="1" style="stop-color:#F5C844"/>
	</linearGradient>
	<path class="st16" d="M3.8,9.3h3.8v7.4H3.8V9.3z M3.8,29.7h3.8v2.8H3.8V29.7z M8.9,5.6h11.5v2.8H8.9V5.6z M8.9,17.6h11.5v2.8H8.9
		V17.6z M8.9,29.7h11.5v2.8H8.9V29.7z M21.6,5.6h3.8v2.8h-3.8V5.6z M21.6,21.3h3.8v7.4h-3.8V21.3z"/>
	<linearGradient id="SVGID_17_" gradientUnits="userSpaceOnUse" x1="29.2755" y1="19.0318" x2="50.9537" y2="19.0318">
		<stop  offset="3.258846e-02" style="stop-color:#AB4695"/>
		<stop  offset="1" style="stop-color:#F5C844"/>
	</linearGradient>
	<path class="st17" d="M29.3,9.3h3.8v7.4h-3.8V9.3z M29.3,29.7h3.8v2.8h-3.8V29.7z M34.4,5.6h11.5v2.8H34.4V5.6z M34.4,17.6h11.5
		v2.8H34.4V17.6z M34.4,29.7h11.5v2.8H34.4V29.7z M47.1,5.6H51v2.8h-3.8V5.6z M47.1,21.3H51v7.4h-3.8V21.3z"/>
	<linearGradient id="SVGID_18_" gradientUnits="userSpaceOnUse" x1="54.7789" y1="19.0318" x2="76.4572" y2="19.0318">
		<stop  offset="3.258846e-02" style="stop-color:#AB4695"/>
		<stop  offset="1" style="stop-color:#F5C844"/>
	</linearGradient>
	<path class="st18" d="M54.8,9.3h3.8v7.4h-3.8V9.3z M54.8,17.6h3.8v2.8h-3.8V17.6z M54.8,21.3h3.8v7.4h-3.8V21.3z M59.9,5.6h11.5
		v2.8H59.9V5.6z M59.9,29.7h11.5v2.8H59.9V29.7z M72.6,9.3h3.8v7.4h-3.8V9.3z M72.6,17.6h3.8v2.8h-3.8V17.6z M72.6,21.3h3.8v7.4
		h-3.8V21.3z"/>
	<linearGradient id="SVGID_19_" gradientUnits="userSpaceOnUse" x1="80.2828" y1="19.0318" x2="101.9611" y2="19.0318">
		<stop  offset="3.258846e-02" style="stop-color:#AB4695"/>
		<stop  offset="1" style="stop-color:#F5C844"/>
	</linearGradient>
	<path class="st19" d="M80.3,5.6h3.8v2.8h-3.8V5.6z M80.3,9.3h3.8v7.4h-3.8V9.3z M80.3,17.6h3.8v2.8h-3.8V17.6z M80.3,21.3h3.8v7.4
		h-3.8V21.3z M80.3,29.7h3.8v2.8h-3.8V29.7z M85.4,14h3.8v2.8h-3.8V14z M89.2,17.6H93v2.8h-3.8V17.6z M93,21.3h3.8v2.8H93V21.3z
		 M98.1,5.6h3.8v2.8h-3.8V5.6z M98.1,9.3h3.8v7.4h-3.8V9.3z M98.1,17.6h3.8v2.8h-3.8V17.6z M98.1,21.3h3.8v7.4h-3.8V21.3z
		 M98.1,29.7h3.8v2.8h-3.8V29.7z"/>
	<linearGradient id="SVGID_20_" gradientUnits="userSpaceOnUse" x1="105.7863" y1="19.0318" x2="127.4645" y2="19.0318">
		<stop  offset="3.258846e-02" style="stop-color:#AB4695"/>
		<stop  offset="1" style="stop-color:#F5C844"/>
	</linearGradient>
	<path class="st20" d="M105.8,5.6h3.8v2.8h-3.8V5.6z M105.8,9.3h3.8v7.4h-3.8V9.3z M105.8,17.6h3.8v2.8h-3.8V17.6z M105.8,21.3h3.8
		v7.4h-3.8V21.3z M105.8,29.7h3.8v2.8h-3.8V29.7z M110.9,5.6h11.5v2.8h-11.5V5.6z M110.9,17.6h11.5v2.8h-11.5V17.6z M110.9,29.7
		h11.5v2.8h-11.5V29.7z M123.6,5.6h3.8v2.8h-3.8V5.6z M123.6,29.7h3.8v2.8h-3.8V29.7z"/>
</g>
<text transform="matrix(1 0 0 1 3.3263 132.8334)" class="st0" style="font-family:'BubblePixel-7Dark'; font-size:26.2101px;">VSOne</text>
<rect x="-62" y="-3.9" class="st21" width="21.3" height="16.5"/>
</svg>
