<?xml version="1.0" encoding="utf-8"?>
<!-- Generator: Adobe Illustrator 25.2.1, SVG Export Plug-In . SVG Version: 6.00 Build 0)  -->
<svg version="1.1" id="图层_1" xmlns="http://www.w3.org/2000/svg" xmlns:xlink="http://www.w3.org/1999/xlink" x="0px" y="0px"
	 viewBox="0 0 264.9 270.9" style="enable-background:new 0 0 264.9 270.9;" xml:space="preserve">
<style type="text/css">
	.st0{fill:#FB8322;}
	.st1{fill:#1175BE;}
	.st2{fill:#0E73BE;}
	.st3{fill:#FB8220;}
	.st4{fill:#0B71BD;}
</style>
<path class="st0" d="M232.8,206.2c-31.4,18.5-60.2,35.5-90.8,53.6c-10.4-27.2-2.6-49.4,19-62.5C184,183.4,206.3,183.5,232.8,206.2z"
	/>
<path class="st1" d="M32.3,204.6c22.7-20.9,47.3-21.4,66.3-11c27.6,15.3,33.7,34.8,27.2,65.7C94.3,240.9,64.2,223.3,32.3,204.6z"/>
<path class="st0" d="M138.4,11.4c33.8,19.9,62.3,36.8,92.9,54.9c-21.6,20.2-43,21.4-64.9,9.6C143.1,63.2,135.3,42.5,138.4,11.4z"/>
<path class="st2" d="M34.2,67.6c33-19.3,61.7-36.1,91.9-53.7c5.4,29.7-5.1,49.5-27.8,62.2C77.9,87.5,57.2,85.6,34.2,67.6z"/>
<path class="st3" d="M241.3,79.9c0,37.4,0,71.2,0,107.4c-26.9-8.3-38-26.9-39.4-50.4C200.5,111.4,213.2,92.4,241.3,79.9z"/>
<path class="st4" d="M27.6,81.7c23.8,10.6,34.5,27.2,35.2,50.6c0.8,24.7-10.2,42.4-35.2,55.3C27.6,151.3,27.6,118,27.6,81.7z"/>
<path class="st2" d="M76.9,129.2v-22.6h7.5H92v22.6v22.6h11.3h11.3v-22.6v-22.6h7.5h7.5v22.6v22.6h-3.8h-3.8v3.8v3.8h-18.8H84.4
	v-3.8v-3.8h-3.8h-3.8V129.2z"/>
<path class="st2" d="M149.7,110.4v-3.8h17.6H185v3.8v3.8h-2.5h-7.5V133v18.8h7.5h2.5v3.8v3.8h-17.6h-17.6v-3.8v-3.8h2.5h7.5V133
	v-18.8h-7.5h-2.5V110.4z"/>
</svg>
