<?xml version="1.0" encoding="utf-8"?>
<!-- Generator: Adobe Illustrator 25.2.1, SVG Export Plug-In . SVG Version: 6.00 Build 0)  -->
<svg version="1.1" id="图层_1" xmlns="http://www.w3.org/2000/svg" xmlns:xlink="http://www.w3.org/1999/xlink" x="0px" y="0px"
	 viewBox="0 0 131.2 38.1" style="enable-background:new 0 0 131.2 38.1;" xml:space="preserve">
<style type="text/css">
	.st0{fill:#ED891B;}
	.st1{fill:url(#SVGID_1_);}
	.st2{fill:url(#SVGID_2_);}
	.st3{fill:url(#SVGID_3_);}
	.st4{fill:url(#SVGID_4_);}
	.st5{fill:url(#SVGID_5_);}
	.st6{fill:url(#SVGID_6_);}
	.st7{fill:url(#SVGID_7_);}
	.st8{fill:url(#SVGID_8_);}
	.st9{fill:url(#SVGID_9_);}
	.st10{fill:url(#SVGID_10_);}
	.st11{fill:#1881B1;}
</style>
<path class="st0" d="M8.1,89.4V64.6h14.2c2.4,0,4.3,0.6,5.7,1.8c1.4,1.2,2.1,2.9,2.1,5.1c0,1.8-0.5,3.3-1.6,4.6
	c-1.1,1.3-2.5,2.3-4.3,2.6l6.2,10.7h-4.2l-6.2-10.6H12v10.6H8.1z M12,75.4h10.2c1.6,0,4-1.4,4-3.8c0-2.4-2.4-3.4-3.8-3.4H12V75.4z"
	/>
<path class="st0" d="M30.8,89.4l9.8-19.2h1.9l9.9,19.2h-4L45.9,85h-8.6l-2.5,4.4H30.8z M38.3,82h6.5l-3.2-6.8L38.3,82z"/>
<path class="st0" d="M55.2,89.4V70.2h3.6l9.4,13v-13H72v19.2h-3.6L59,77.5v11.9H55.2z"/>
<path class="st0" d="M157.6,89.4V70.2h3.6l9.4,13v-13h3.7v19.2h-3.6l-9.4-11.9v11.9H157.6z"/>
<path class="st0" d="M89.5,82.5v-3.3h6.8V85c-1,1.6-2.2,2.9-3.7,3.8c-1.5,0.9-3.3,1.3-5.4,1.3c-3.1,0-5.5-1-7.5-2.9
	c-1.9-1.9-2.9-4.3-2.9-7.3c0-2.9,1-5.4,2.9-7.3c2-1.9,4.4-2.9,7.5-2.9c1.9,0,3.6,0.4,5.1,1.1c1.5,0.8,2.7,1.9,3.7,3.4l-2.5,2.3
	c-0.7-1.1-1.6-2-2.8-2.6c-1.2-0.6-2.3-0.8-3.7-0.8c-2.3,0-3.4,0.6-4.9,1.9c-1.4,1.4-1.8,3.2-1.8,4.7c0.1,1.9,0.5,2.9,1.4,4.1
	c1.2,1.6,3.2,2.8,5.4,2.8c1.4,0,3.4-0.1,5.5-2.7v-1.6H89.5z"/>
<g>
	<path class="st0" d="M137.9,90.1c-3.7,0-6.8-1.2-9.2-3.7c-2.4-2.5-3.6-5.6-3.6-9.3c0-3.8,1.2-6.9,3.6-9.3c2.4-2.5,5.5-3.7,9.2-3.7
		c3.7,0,6.8,1.2,9.2,3.7c2.4,2.5,3.7,5.6,3.7,9.3c0,3.8-1.2,6.9-3.7,9.3C144.7,88.8,141.6,90.1,137.9,90.1z M137.9,87.2
		c2.8,0,5.1-1,6.9-2.9c1.8-1.9,2.7-4.3,2.7-7.2c0-2.9-0.9-5.4-2.7-7.3c-1.8-1.9-4.1-2.9-6.9-2.9c-2.8,0-5.1,1-6.9,2.9
		c-1.8,1.9-2.7,4.3-2.7,7.3s0.9,5.3,2.7,7.2C132.8,86.2,135.1,87.2,137.9,87.2z"/>
	<path class="st0" d="M138.3,70.8h-0.8c-0.3,0-0.5-0.2-0.5-0.5v-8.2c0-0.3,0.2-0.5,0.5-0.5h0.8c0.3,0,0.5,0.2,0.5,0.5v8.2
		C138.9,70.6,138.6,70.8,138.3,70.8z"/>
	<path class="st0" d="M138.3,93.2h-0.8c-0.3,0-0.5-0.2-0.5-0.5v-8.2c0-0.3,0.2-0.5,0.5-0.5h0.8c0.3,0,0.5,0.2,0.5,0.5v8.2
		C138.9,93,138.6,93.2,138.3,93.2z"/>
	<g>
		<path class="st0" d="M144.4,77.2v-0.8c0-0.3,0.2-0.5,0.5-0.5h8.2c0.3,0,0.5,0.2,0.5,0.5v0.8c0,0.3-0.2,0.5-0.5,0.5h-8.2
			C144.6,77.7,144.4,77.5,144.4,77.2z"/>
		<path class="st0" d="M122,77.2v-0.8c0-0.3,0.2-0.5,0.5-0.5h8.2c0.3,0,0.5,0.2,0.5,0.5v0.8c0,0.3-0.2,0.5-0.5,0.5h-8.2
			C122.2,77.7,122,77.5,122,77.2z"/>
	</g>
</g>
<path class="st0" d="M101.3,89.4V70.2h3.8l0,15.9h9.9c0,0,1.8,0.2,2.9,1c1.1,0.8,1.7,2.3,1.7,2.3H101.3z"/>
<path class="st0" d="M115,80.9h-8.3v-3.5h3.2c0,0,2.1,0,3.3,1C114.4,79.5,115,80.9,115,80.9z"/>
<path class="st0" d="M117.8,73.7h-11.1v-3.5h6c0,0,2.1,0,3.3,1C117.2,72.3,117.8,73.7,117.8,73.7z"/>
<path class="st0" d="M178.2,89.4V70.2h3.8l0,15.9h9.9c0,0,1.8,0.2,2.9,1c1.1,0.8,1.7,2.3,1.7,2.3H178.2z"/>
<path class="st0" d="M191.9,80.9h-8.3v-3.5h3.2c0,0,2.1,0,3.3,1C191.4,79.5,191.9,80.9,191.9,80.9z"/>
<path class="st0" d="M194.7,73.7h-11.1v-3.5h6c0,0,2.1,0,3.3,1C194.2,72.3,194.7,73.7,194.7,73.7z"/>
<text transform="matrix(1 0 0 1 -52.0749 -60.5288)" class="st0" style="font-family:'BrickLED-7'; font-size:18.3835px;">VSONE</text>
<text transform="matrix(1 0 0 1 227.6648 30.0444)" class="st0" style="font-family:'BrickLED-7'; font-size:18.3835px;">VSONE</text>
<text transform="matrix(1 0 0 1 152.1415 -12.2867)" class="st0" style="font-family:'PowerPixel-7'; font-size:43.2751px;">VSONE</text>
<text transform="matrix(1 0 0 1 213.1357 81.9968)" class="st0" style="font-family:'SmallestPixel-7'; font-size:55.3119px;">VSONE</text>
<text transform="matrix(1 0 0 1 152.1415 147.8853)" class="st0" style="font-family:'BoldLEDBoard-7'; font-size:36.9383px;">VSONE</text>
<g>
	<linearGradient id="SVGID_1_" gradientUnits="userSpaceOnUse" x1="4.702" y1="19.6162" x2="26.3802" y2="19.6162">
		<stop  offset="3.258846e-02" style="stop-color:#ED891B"/>
		<stop  offset="1" style="stop-color:#00A9C8"/>
	</linearGradient>
	<path class="st1" d="M4.7,6.2h3.8V9H4.7V6.2z M4.7,9.9h3.8v7.4H4.7V9.9z M4.7,18.2h3.8V21H4.7V18.2z M4.7,21.9h3.8v3.7H4.7V21.9z
		 M8.5,26.5h3.8v2.8H8.5V26.5z M13.6,30.2h3.8V33h-3.8V30.2z M18.7,26.5h3.8v2.8h-3.8V26.5z M22.6,6.2h3.8V9h-3.8V6.2z M22.6,9.9
		h3.8v7.4h-3.8V9.9z M22.6,18.2h3.8V21h-3.8V18.2z M22.6,21.9h3.8v3.7h-3.8V21.9z"/>
	<linearGradient id="SVGID_2_" gradientUnits="userSpaceOnUse" x1="30.2059" y1="19.6162" x2="51.8841" y2="19.6162">
		<stop  offset="3.258846e-02" style="stop-color:#ED891B"/>
		<stop  offset="1" style="stop-color:#00A9C8"/>
	</linearGradient>
	<path class="st2" d="M30.2,9.9H34v7.4h-3.8V9.9z M30.2,30.2H34V33h-3.8V30.2z M35.3,6.2h11.5V9H35.3V6.2z M35.3,18.2h11.5V21H35.3
		V18.2z M35.3,30.2h11.5V33H35.3V30.2z M48.1,6.2h3.8V9h-3.8V6.2z M48.1,21.9h3.8v7.4h-3.8V21.9z"/>
	<linearGradient id="SVGID_3_" gradientUnits="userSpaceOnUse" x1="55.7093" y1="19.6162" x2="77.3876" y2="19.6162">
		<stop  offset="3.258846e-02" style="stop-color:#ED891B"/>
		<stop  offset="1" style="stop-color:#00A9C8"/>
	</linearGradient>
	<path class="st3" d="M55.7,9.9h3.8v7.4h-3.8V9.9z M55.7,18.2h3.8V21h-3.8V18.2z M55.7,21.9h3.8v7.4h-3.8V21.9z M60.8,6.2h11.5V9
		H60.8V6.2z M60.8,30.2h11.5V33H60.8V30.2z M73.6,9.9h3.8v7.4h-3.8V9.9z M73.6,18.2h3.8V21h-3.8V18.2z M73.6,21.9h3.8v7.4h-3.8V21.9
		z"/>
	<linearGradient id="SVGID_4_" gradientUnits="userSpaceOnUse" x1="81.2132" y1="19.6162" x2="102.8915" y2="19.6162">
		<stop  offset="3.258846e-02" style="stop-color:#ED891B"/>
		<stop  offset="1" style="stop-color:#00A9C8"/>
	</linearGradient>
	<path class="st4" d="M81.2,6.2H85V9h-3.8V6.2z M81.2,9.9H85v7.4h-3.8V9.9z M81.2,18.2H85V21h-3.8V18.2z M81.2,21.9H85v7.4h-3.8
		V21.9z M81.2,30.2H85V33h-3.8V30.2z M86.3,14.5h3.8v2.8h-3.8V14.5z M90.1,18.2H94V21h-3.8V18.2z M94,21.9h3.8v2.8H94V21.9z
		 M99.1,6.2h3.8V9h-3.8V6.2z M99.1,9.9h3.8v7.4h-3.8V9.9z M99.1,18.2h3.8V21h-3.8V18.2z M99.1,21.9h3.8v7.4h-3.8V21.9z M99.1,30.2
		h3.8V33h-3.8V30.2z"/>
	<linearGradient id="SVGID_5_" gradientUnits="userSpaceOnUse" x1="106.7167" y1="19.6162" x2="128.3949" y2="19.6162">
		<stop  offset="3.258846e-02" style="stop-color:#ED891B"/>
		<stop  offset="1" style="stop-color:#00A9C8"/>
	</linearGradient>
	<path class="st5" d="M106.7,6.2h3.8V9h-3.8V6.2z M106.7,9.9h3.8v7.4h-3.8V9.9z M106.7,18.2h3.8V21h-3.8V18.2z M106.7,21.9h3.8v7.4
		h-3.8V21.9z M106.7,30.2h3.8V33h-3.8V30.2z M111.8,6.2h11.5V9h-11.5V6.2z M111.8,18.2h11.5V21h-11.5V18.2z M111.8,30.2h11.5V33
		h-11.5V30.2z M124.6,6.2h3.8V9h-3.8V6.2z M124.6,30.2h3.8V33h-3.8V30.2z"/>
</g>
<g>
	<linearGradient id="SVGID_6_" gradientUnits="userSpaceOnUse" x1="-128.7195" y1="56.3054" x2="-107.0413" y2="56.3054">
		<stop  offset="3.258846e-02" style="stop-color:#ED891B"/>
		<stop  offset="1" style="stop-color:#00A9C8"/>
	</linearGradient>
	<path class="st6" d="M-128.7,42.9h3.8v2.8h-3.8V42.9z M-128.7,46.6h3.8V54h-3.8V46.6z M-128.7,54.9h3.8v2.8h-3.8V54.9z
		 M-128.7,58.6h3.8v3.7h-3.8V58.6z M-124.9,63.2h3.8V66h-3.8V63.2z M-119.8,66.9h3.8v2.8h-3.8V66.9z M-114.7,63.2h3.8V66h-3.8V63.2z
		 M-110.9,42.9h3.8v2.8h-3.8V42.9z M-110.9,46.6h3.8V54h-3.8V46.6z M-110.9,54.9h3.8v2.8h-3.8V54.9z M-110.9,58.6h3.8v3.7h-3.8V58.6
		z"/>
	<linearGradient id="SVGID_7_" gradientUnits="userSpaceOnUse" x1="-103.2156" y1="56.3054" x2="-81.5374" y2="56.3054">
		<stop  offset="3.258846e-02" style="stop-color:#ED891B"/>
		<stop  offset="1" style="stop-color:#00A9C8"/>
	</linearGradient>
	<path class="st7" d="M-103.2,46.6h3.8V54h-3.8V46.6z M-103.2,66.9h3.8v2.8h-3.8V66.9z M-98.1,42.9h11.5v2.8h-11.5V42.9z
		 M-98.1,54.9h11.5v2.8h-11.5V54.9z M-98.1,66.9h11.5v2.8h-11.5V66.9z M-85.4,42.9h3.8v2.8h-3.8V42.9z M-85.4,58.6h3.8V66h-3.8V58.6
		z"/>
	<linearGradient id="SVGID_8_" gradientUnits="userSpaceOnUse" x1="-77.7122" y1="56.3054" x2="-56.034" y2="56.3054">
		<stop  offset="3.258846e-02" style="stop-color:#ED891B"/>
		<stop  offset="1" style="stop-color:#00A9C8"/>
	</linearGradient>
	<path class="st8" d="M-77.7,46.6h3.8V54h-3.8V46.6z M-77.7,54.9h3.8v2.8h-3.8V54.9z M-77.7,58.6h3.8V66h-3.8V58.6z M-72.6,42.9
		h11.5v2.8h-11.5V42.9z M-72.6,66.9h11.5v2.8h-11.5V66.9z M-59.9,46.6h3.8V54h-3.8V46.6z M-59.9,54.9h3.8v2.8h-3.8V54.9z
		 M-59.9,58.6h3.8V66h-3.8V58.6z"/>
	<linearGradient id="SVGID_9_" gradientUnits="userSpaceOnUse" x1="-52.2083" y1="56.3054" x2="-30.5301" y2="56.3054">
		<stop  offset="3.258846e-02" style="stop-color:#ED891B"/>
		<stop  offset="1" style="stop-color:#00A9C8"/>
	</linearGradient>
	<path class="st9" d="M-52.2,42.9h3.8v2.8h-3.8V42.9z M-52.2,46.6h3.8V54h-3.8V46.6z M-52.2,54.9h3.8v2.8h-3.8V54.9z M-52.2,58.6
		h3.8V66h-3.8V58.6z M-52.2,66.9h3.8v2.8h-3.8V66.9z M-47.1,51.2h3.8V54h-3.8V51.2z M-43.3,54.9h3.8v2.8h-3.8V54.9z M-39.5,58.6h3.8
		v2.8h-3.8V58.6z M-34.4,42.9h3.8v2.8h-3.8V42.9z M-34.4,46.6h3.8V54h-3.8V46.6z M-34.4,54.9h3.8v2.8h-3.8V54.9z M-34.4,58.6h3.8V66
		h-3.8V58.6z M-34.4,66.9h3.8v2.8h-3.8V66.9z"/>
	<linearGradient id="SVGID_10_" gradientUnits="userSpaceOnUse" x1="-26.7049" y1="56.3054" x2="-5.0267" y2="56.3054">
		<stop  offset="3.258846e-02" style="stop-color:#ED891B"/>
		<stop  offset="1" style="stop-color:#00A9C8"/>
	</linearGradient>
	<path class="st10" d="M-26.7,42.9h3.8v2.8h-3.8V42.9z M-26.7,46.6h3.8V54h-3.8V46.6z M-26.7,54.9h3.8v2.8h-3.8V54.9z M-26.7,58.6
		h3.8V66h-3.8V58.6z M-26.7,66.9h3.8v2.8h-3.8V66.9z M-21.6,42.9h11.5v2.8h-11.5V42.9z M-21.6,54.9h11.5v2.8h-11.5V54.9z
		 M-21.6,66.9h11.5v2.8h-11.5V66.9z M-8.9,42.9H-5v2.8h-3.8V42.9z M-8.9,66.9H-5v2.8h-3.8V66.9z"/>
</g>
<text transform="matrix(1.3809 0 0 1 -53.3106 -22.7136)" class="st0" style="font-family:'DashDotLCD-7'; font-size:36.9383px;">VSONE</text>
<text transform="matrix(1 0 0 1 3.3263 132.8334)" class="st0" style="font-family:'BubblePixel-7Dark'; font-size:26.2101px;">VSOne</text>
<rect x="-62" y="-3.9" class="st11" width="21.3" height="16.5"/>
</svg>
